<?xml version="1.0" standalone="no"?>
<!DOCTYPE svg PUBLIC "-//W3C//DTD SVG 20010904//EN"
 "http://www.w3.org/TR/2001/REC-SVG-20010904/DTD/svg10.dtd">
<svg version="1.0" xmlns="http://www.w3.org/2000/svg"
 width="300.000000pt" height="300.000000pt" viewBox="0 0 300.000000 300.000000"
 preserveAspectRatio="xMidYMid meet">
<metadata>
Created by potrace 1.10, written by Peter Selinger 2001-2011
</metadata>
<g transform="translate(0.000000,300.000000) scale(0.100000,-0.100000)"
fill="#000000" stroke="none">
<path d="M1625 2654 c-61 -31 -121 -66 -134 -78 -46 -42 -151 -200 -151 -229
0 -10 -7 -32 -16 -48 -17 -34 -11 -52 9 -27 22 27 78 60 125 74 l47 13 -50 -6
c-27 -3 -56 -10 -62 -15 -9 -7 -13 -7 -13 0 0 6 12 20 26 31 15 12 22 21 17
21 -5 0 -14 -5 -21 -12 -6 -6 -15 -9 -19 -5 -3 4 2 16 13 26 10 11 46 56 79
100 40 55 68 83 85 87 14 3 32 10 40 15 8 5 31 16 50 25 19 8 58 26 86 40 59
28 72 30 50 8 -27 -27 -17 -36 14 -14 17 12 30 17 30 11 0 -7 16 -8 43 -5 25
3 68 -1 107 -10 36 -9 72 -18 80 -19 8 -1 18 -9 22 -17 5 -12 7 -12 7 3 1 20
17 23 24 3 3 -7 19 -16 35 -19 22 -5 33 -15 45 -44 15 -36 16 -37 16 -10 1 17
5 26 12 22 6 -4 8 -14 5 -22 -3 -8 -1 -11 4 -8 20 12 106 -107 113 -157 2 -10
6 -21 10 -24 4 -4 2 -13 -4 -21 -9 -9 -8 -13 0 -13 6 0 10 -3 9 -7 -1 -5 6
-22 15 -40 11 -20 13 -34 7 -38 -6 -4 -8 -11 -5 -16 4 -5 1 -9 -4 -9 -6 0 -11
5 -11 11 0 17 -121 4 -132 -15 -8 -14 -5 -15 18 -6 56 22 131 -14 149 -70 7
-22 6 -23 -9 -11 -14 11 -16 11 -16 -2 0 -9 5 -19 10 -22 6 -3 10 -13 10 -21
0 -8 -4 -12 -10 -9 -14 9 -13 -8 2 -23 9 -9 8 -12 -8 -12 -11 0 -46 25 -78 56
-68 64 -106 91 -106 75 0 -6 4 -11 9 -11 16 0 186 -168 179 -176 -12 -12 -89
47 -115 89 -14 23 -40 45 -66 57 -90 41 -290 121 -293 117 -3 -2 46 -26 108
-52 62 -26 124 -54 138 -61 14 -7 42 -20 63 -28 20 -8 37 -19 37 -25 0 -5 -14
-21 -31 -35 -33 -28 -32 -34 2 -13 17 10 23 9 26 -1 3 -6 9 -9 14 -6 6 3 22
-6 36 -20 14 -14 29 -26 34 -26 18 0 13 -37 -9 -67 -13 -18 -19 -33 -14 -33 6
0 9 -7 6 -15 -8 -20 -24 -19 -24 1 0 10 -6 14 -17 10 -46 -14 -210 -46 -235
-46 -15 0 -28 4 -28 9 0 10 -61 34 -68 26 -3 -3 0 -5 6 -5 22 0 42 -31 36 -56
-4 -16 -2 -24 7 -24 7 0 1 -12 -14 -28 -15 -15 -27 -35 -27 -45 0 -19 -35 -59
-67 -75 -62 -33 -182 7 -219 74 -10 17 -27 74 -28 96 -1 3 -4 10 -8 14 -16 15
-7 -62 11 -101 35 -79 103 -115 214 -115 53 0 62 3 88 31 16 17 34 48 40 70 7
21 17 39 22 39 6 0 18 6 26 14 19 17 114 46 150 46 23 0 19 -5 -29 -38 -97
-65 -205 -186 -180 -202 10 -6 8 -12 -9 -26 -11 -10 -21 -24 -21 -32 0 -7 -4
-11 -9 -8 -5 3 -11 -3 -14 -14 -3 -11 -4 -20 -2 -20 2 0 27 30 56 67 52 67
147 163 161 163 4 0 5 6 3 13 -3 6 4 23 14 36 l18 24 22 -22 c13 -13 26 -19
29 -15 4 3 1 9 -5 11 -10 3 -9 10 2 27 8 12 12 26 8 29 -3 4 11 14 32 23 45
19 105 62 105 76 0 6 9 23 21 39 16 23 22 53 29 146 13 172 -14 313 -80 409
-66 95 -192 184 -262 184 -11 0 -32 7 -47 15 -19 9 -73 16 -158 20 l-129 5
-109 -56z m415 -854 c0 -13 -20 -13 -40 0 -12 8 -9 10 13 10 15 0 27 -4 27
-10z"/>
<path d="M1674 2548 c-7 -11 13 -28 34 -28 8 0 12 7 10 17 -3 18 -35 26 -44
11z"/>
<path d="M1614 2528 c-2 -3 5 -13 17 -22 12 -8 18 -19 15 -24 -4 -6 3 -8 16
-4 16 4 19 2 14 -9 -4 -8 0 -5 9 6 15 19 15 20 -10 23 -20 3 -25 8 -20 22 5
15 1 18 -15 17 -12 -1 -24 -5 -26 -9z"/>
<path d="M2240 2483 c0 -18 5 -33 10 -33 13 0 13 30 0 50 -7 11 -10 7 -10 -17z"/>
<path d="M1521 2346 c2 -2 38 -6 79 -9 44 -3 67 -2 55 3 -19 8 -143 14 -134 6z"/>
<path d="M2240 2340 c0 -12 28 -25 36 -17 3 3 -4 10 -15 17 -15 7 -21 7 -21 0z"/>
<path d="M1290 2250 c0 -5 -4 -10 -10 -10 -5 0 -34 -9 -65 -21 -69 -26 -167
-112 -163 -143 5 -38 57 -21 215 70 42 24 54 12 56 -55 2 -41 5 -51 20 -51 14
0 17 9 17 53 0 44 -4 58 -25 77 -39 37 -32 43 45 37 72 -6 177 -45 214 -79 11
-10 26 -18 33 -18 7 0 13 -4 13 -10 0 -5 5 -10 12 -10 6 0 25 -11 42 -24 39
-29 138 -80 212 -107 59 -22 118 -22 178 1 45 17 27 20 -31 5 -96 -25 -162 -2
-360 126 -144 93 -267 149 -330 149 -23 0 -45 5 -48 10 -3 6 -10 10 -16 10 -5
0 -9 -4 -9 -10z"/>
<path d="M2160 2232 c0 -4 9 -15 20 -25 22 -19 29 0 8 21 -14 14 -28 16 -28 4z"/>
<path d="M2637 2140 c-10 -12 -29 -20 -45 -20 -62 1 -143 -13 -139 -24 5 -16
76 -20 103 -5 15 7 45 9 91 5 112 -11 129 -10 188 4 49 12 58 12 66 -1 16 -24
5 -53 -24 -67 -29 -14 -29 -14 -9 -35 11 -12 23 -39 26 -59 9 -48 18 -53 60
-33 31 15 33 18 22 41 -9 19 -16 23 -37 19 -27 -6 -46 15 -33 36 9 15 42 10
52 -7 7 -12 11 -13 17 -5 4 7 -6 31 -22 54 -15 23 -30 53 -33 67 -6 27 -16 28
-146 15 -65 -7 -74 -5 -93 14 -26 26 -23 25 -44 1z"/>
<path d="M1210 2068 c0 -5 21 -8 47 -8 25 0 44 3 40 6 -9 9 -87 10 -87 2z"/>
<path d="M765 2028 c-22 -4 -71 -7 -110 -7 -38 1 -149 -2 -247 -6 -120 -4
-178 -3 -183 4 -11 19 -25 12 -25 -12 0 -22 2 -22 87 -20 49 2 95 3 103 4 61
5 496 21 539 20 70 -3 121 8 99 20 -18 10 -202 8 -263 -3z"/>
<path d="M1203 2008 c-48 -9 -53 -12 -53 -36 0 -15 9 -40 20 -57 11 -16 20
-41 20 -55 1 -42 36 -106 74 -135 27 -21 51 -28 99 -32 57 -5 66 -3 93 21 17
14 35 22 39 18 4 -4 6 0 5 8 -1 8 -2 26 -1 40 1 20 3 22 11 10 7 -11 8 -5 4
20 -8 42 -14 51 -14 22 0 -11 -4 -24 -10 -27 -5 -3 -10 -14 -10 -24 0 -30 -46
-71 -79 -71 -38 0 -120 35 -127 55 -3 8 -10 12 -15 10 -5 -3 -11 7 -14 22 -4
15 -10 35 -14 43 -5 9 -7 30 -5 48 3 23 0 32 -11 32 -29 0 -16 38 16 49 40 14
42 14 33 -1 -6 -10 -4 -10 7 0 7 6 23 12 36 12 12 0 27 9 33 20 11 20 -3 30
-15 10 -3 -5 -11 -10 -16 -10 -6 0 -7 5 -4 10 7 12 -30 11 -102 -2z"/>
<path d="M2150 1995 c-10 -12 -10 -15 4 -15 9 0 16 -6 16 -14 0 -8 4 -17 9
-21 6 -3 6 7 1 26 -12 41 -15 43 -30 24z"/>
<path d="M1430 1975 c0 -9 102 -56 113 -52 7 3 3 8 -8 12 -11 3 -28 11 -38 16
-28 15 -67 29 -67 24z"/>
<path d="M185 1878 c-6 -69 -2 -114 10 -126 3 -3 5 40 5 96 0 56 -2 102 -4
102 -2 0 -7 -33 -11 -72z"/>
<path d="M2670 1940 c0 -5 5 -10 10 -10 19 0 10 -18 -12 -24 -18 -5 -20 -8 -9
-15 17 -11 53 23 45 44 -7 17 -34 21 -34 5z"/>
<path d="M1640 1918 c0 -10 31 -10 48 0 8 6 2 9 -18 9 -16 0 -30 -4 -30 -9z"/>
<path d="M2783 1913 c-8 -3 -11 -14 -7 -29 5 -20 2 -24 -17 -25 -13 0 -18 -3
-12 -6 7 -2 15 -4 19 -3 4 1 10 -4 15 -12 6 -9 11 -10 19 -2 14 14 -1 82 -17
77z"/>
<path d="M1004 1897 c-2 -7 3 -31 13 -53 l18 -39 3 39 c2 21 1 44 -2 52 -7 18
-25 18 -32 1z"/>
<path d="M2557 1904 c-3 -3 -2 -17 3 -30 6 -15 6 -24 0 -24 -6 0 -10 -5 -10
-11 0 -8 11 -9 32 -5 40 8 47 15 27 29 -8 7 -18 20 -22 30 -6 17 -19 22 -30
11z"/>
<path d="M815 1880 c-11 -18 13 -36 31 -25 9 6 16 15 17 20 3 14 -40 18 -48 5z"/>
<path d="M1538 1863 c-12 -3 -18 -14 -17 -31 0 -25 1 -26 9 -6 12 31 24 36 56
24 24 -9 25 -9 14 5 -12 15 -28 17 -62 8z"/>
<path d="M2348 1826 c-51 -30 -58 -40 -24 -32 l28 7 -7 -48 -7 -48 36 50 c36
50 47 96 24 94 -7 0 -30 -11 -50 -23z"/>
<path d="M778 1784 c-2 -10 0 -31 5 -47 6 -19 5 -32 -4 -43 -11 -14 -10 -18 6
-30 39 -28 80 -10 48 21 -16 17 -15 19 10 41 l27 23 -35 11 c-19 6 -39 19 -44
28 -8 14 -9 13 -13 -4z"/>
<path d="M2263 1758 c-4 -7 -6 -24 -4 -37 2 -16 -8 -33 -33 -57 -20 -19 -33
-34 -30 -34 4 0 1 -6 -5 -14 -6 -8 -11 -18 -10 -22 4 -14 -23 -94 -31 -94 -5
0 -11 -11 -14 -24 -3 -14 -12 -31 -19 -38 -7 -7 -23 -31 -36 -53 -14 -22 -34
-48 -45 -58 -12 -10 -16 -16 -9 -13 6 3 13 1 15 -6 5 -14 17 -1 64 72 35 54
36 55 31 20 -3 -19 -12 -66 -21 -105 -22 -91 -25 -116 -15 -109 5 3 9 16 9 30
0 33 13 30 43 -8 55 -73 133 -139 209 -179 22 -12 22 -11 6 8 -10 11 -18 23
-18 26 0 4 31 7 69 7 49 0 72 4 81 15 11 13 7 15 -26 15 -22 0 -46 4 -53 9 -9
6 -22 6 -31 1 -25 -13 -100 0 -100 17 0 9 6 13 13 10 7 -2 18 6 24 19 9 19 8
27 -4 39 -13 14 -18 12 -43 -15 -32 -35 -37 -36 -61 -14 -14 13 -16 20 -7 40
6 13 18 25 27 26 9 1 23 2 31 3 8 0 27 9 43 19 15 10 38 16 51 14 18 -4 23 -1
19 9 -4 10 -14 13 -32 8 -14 -3 -48 -10 -76 -14 -27 -4 -64 -15 -82 -24 -40
-21 -49 -21 -57 0 -9 21 32 203 45 203 6 0 8 8 4 19 -3 10 -1 31 5 45 8 22 15
27 37 24 22 -2 29 -10 36 -40 7 -28 12 -35 25 -31 28 11 31 26 11 54 -12 17
-15 30 -9 34 5 3 10 14 10 23 0 13 -3 12 -16 -6 -16 -23 -57 -29 -83 -13 -22
14 16 82 60 104 30 16 79 74 67 80 -1 1 -13 8 -25 15 -13 6 -25 12 -27 12 -3
0 -8 -6 -13 -12z"/>
<path d="M2484 1729 c-3 -5 9 -9 25 -9 17 0 31 2 31 4 0 8 -51 13 -56 5z"/>
<path d="M1105 1723 c-16 -3 -34 -9 -40 -15 -7 -7 0 -9 24 -4 18 3 49 6 68 6
20 0 32 4 28 10 -6 10 -24 11 -80 3z"/>
<path d="M2756 1708 c-10 -38 -7 -65 9 -78 10 -9 15 -9 15 -1 0 6 -5 11 -12
11 -6 0 -3 9 7 20 21 24 60 26 69 5 7 -19 52 -20 59 -1 5 11 -9 18 -51 27 -31
7 -61 19 -65 26 -12 19 -24 16 -31 -9z"/>
<path d="M920 1698 c0 -4 9 -8 20 -8 11 0 20 4 20 8 0 4 -9 8 -20 8 -11 0 -20
-4 -20 -8z"/>
<path d="M1459 1693 c-12 -15 -12 -16 6 -9 16 6 18 5 8 -5 -18 -18 -16 -34 2
-19 16 13 21 50 6 50 -5 0 -15 -8 -22 -17z"/>
<path d="M2323 1682 c-2 -11 -17 -25 -31 -32 -17 -8 -22 -14 -14 -17 7 -3 21
2 31 11 10 9 23 16 29 16 15 0 16 27 1 35 -6 4 -13 -2 -16 -13z"/>
<path d="M637 1684 c-1 -1 -51 -5 -112 -8 -112 -7 -147 -10 -245 -23 -30 -3
-61 -5 -67 -4 -7 1 -13 -3 -13 -9 0 -11 17 -10 220 11 130 13 186 17 248 18
28 1 52 5 52 10 0 7 -75 12 -83 5z"/>
<path d="M1288 1674 c-5 -26 10 -159 22 -198 7 -23 9 -3 6 76 -4 103 -19 168
-28 122z"/>
<path d="M2966 1681 c-6 -10 16 -61 27 -61 4 0 7 16 7 35 0 24 -5 35 -14 35
-8 0 -17 -4 -20 -9z"/>
<path d="M2935 1611 c4 -57 27 -97 38 -68 3 9 -1 21 -9 27 -8 7 -14 24 -14 39
0 14 -5 33 -10 41 -7 10 -8 -2 -5 -39z"/>
<path d="M2730 1626 c0 -8 5 -18 10 -21 6 -3 10 1 10 9 0 8 -4 18 -10 21 -5 3
-10 -1 -10 -9z"/>
<path d="M189 1603 c-3 -10 -1 -40 2 -68 6 -49 6 -49 7 18 2 65 -2 85 -9 50z"/>
<path d="M979 1597 c-87 -12 -81 -17 16 -12 198 12 239 15 244 20 7 8 -194 2
-260 -8z"/>
<path d="M2830 1572 c0 -33 3 -40 15 -36 10 4 13 14 9 33 -11 45 -24 47 -24 3z"/>
<path d="M1689 1592 c-1 -7 -2 -18 -3 -24 -1 -8 -20 -14 -50 -16 -28 -2 -61
-11 -76 -22 -24 -17 -29 -18 -48 -4 -13 9 -22 11 -22 5 0 -6 5 -11 11 -11 5 0
7 -4 4 -10 -3 -5 1 -10 9 -10 9 0 16 -7 16 -15 0 -8 9 -15 19 -15 20 0 35 25
24 42 -3 7 -1 8 6 4 6 -4 34 0 61 9 38 13 52 23 56 41 4 14 4 28 0 31 -3 4 -7
1 -7 -5z"/>
<path d="M509 1567 c-78 -19 -128 -26 -199 -27 -64 -1 -71 -3 -45 -12 17 -5
37 -12 45 -15 23 -9 80 -3 126 13 55 18 91 23 210 28 55 2 109 8 120 15 15 9
-8 11 -102 9 -67 -2 -137 -6 -155 -11z"/>
<path d="M2412 1532 c-13 -4 -23 -10 -23 -14 1 -5 1 -13 1 -19 0 -6 6 -9 14
-6 8 3 22 -3 32 -14 35 -39 60 -8 34 42 -11 20 -20 21 -58 11z"/>
<path d="M1041 1496 c-16 -19 2 -31 47 -28 27 2 35 -2 39 -18 10 -38 64 -20
68 24 3 25 2 26 -55 26 -32 0 -65 2 -73 5 -7 3 -19 -1 -26 -9z"/>
<path d="M683 1453 c-23 -4 -30 -17 -14 -27 14 -9 94 9 99 22 4 12 -36 14 -85
5z"/>
<path d="M1443 1453 c-47 -6 -41 -27 8 -31 23 -1 50 -7 60 -12 10 -6 42 -10
71 -10 69 -1 157 -22 172 -41 13 -18 36 -14 36 7 0 8 -9 14 -19 14 -11 0 -22
4 -25 9 -10 16 -137 53 -149 43 -20 -15 -49 -23 -41 -11 4 7 0 9 -14 5 -22 -7
-74 12 -66 25 3 5 4 8 2 7 -2 0 -18 -3 -35 -5z"/>
<path d="M2950 1444 c-10 -11 -25 -14 -57 -11 -23 3 -43 1 -43 -3 0 -5 -37 -8
-82 -8 -150 1 -199 -4 -196 -20 2 -9 9 -17 17 -20 8 -3 11 0 7 6 -9 15 27 24
59 16 15 -4 93 -7 174 -8 l146 -1 -3 33 c-5 37 -5 37 -22 16z"/>
<path d="M2387 1425 c-4 -8 -2 -17 4 -21 12 -7 41 15 33 27 -8 14 -31 11 -37
-6z"/>
<path d="M1274 1415 c-4 -9 -1 -34 5 -58 7 -23 13 -51 15 -62 8 -45 19 -75 26
-70 4 3 10 -4 13 -15 3 -11 2 -18 -3 -15 -4 3 -7 -6 -6 -20 0 -14 4 -25 7 -25
8 0 39 -68 39 -85 0 -7 5 -17 12 -21 7 -5 8 -3 3 6 -5 8 -4 11 3 6 6 -3 13
-20 17 -36 4 -17 10 -28 14 -26 4 3 15 -8 25 -25 9 -16 15 -29 11 -29 -3 0 12
-25 32 -57 42 -63 61 -50 20 14 -13 21 -28 49 -32 63 -4 14 -11 27 -14 30 -11
8 -101 189 -101 203 0 6 -11 35 -24 62 -23 45 -23 52 -10 73 11 16 12 27 4 41
-5 11 -10 29 -10 40 0 25 -37 29 -46 6z"/>
<path d="M207 1413 c-8 -8 -9 -63 -1 -63 3 0 12 6 19 14 12 12 12 15 0 20 -8
3 -12 12 -9 21 6 16 2 20 -9 8z"/>
<path d="M1197 1352 c-10 -10 -17 -31 -17 -46 0 -15 -4 -25 -8 -22 -4 2 -14
-4 -20 -15 -12 -19 -11 -19 8 -9 12 6 23 19 26 28 3 9 12 30 20 46 18 35 13
43 -9 18z"/>
<path d="M2295 1360 c-8 -13 15 -13 35 0 12 8 11 10 -7 10 -12 0 -25 -4 -28
-10z"/>
<path d="M1050 1333 c-8 -16 -16 -31 -18 -35 -2 -5 8 -13 23 -20 14 -6 28 -22
31 -35 4 -13 9 -23 13 -23 18 0 19 15 3 59 -10 25 -18 52 -17 60 0 26 -21 22
-35 -6z"/>
<path d="M1512 1338 c3 -7 15 -12 26 -10 12 2 22 -2 22 -7 0 -6 6 -11 14 -11
8 0 13 8 12 18 -2 12 -14 18 -40 20 -28 2 -37 0 -34 -10z"/>
<path d="M2597 1320 c-11 -41 13 -80 27 -44 5 12 14 15 39 10 37 -7 43 -8 77
-6 104 7 88 25 -21 25 -75 0 -93 3 -104 18 -12 16 -13 16 -18 -3z"/>
<path d="M2432 1318 c4 -9 2 -18 -3 -20 -5 -2 -1 -13 11 -25 22 -24 26 -43 9
-43 -8 0 -8 -5 1 -15 14 -17 56 -20 65 -5 4 6 0 22 -9 35 -23 35 -81 93 -74
73z"/>
<path d="M1205 1310 c-3 -5 -2 -17 3 -27 7 -12 5 -24 -5 -40 -8 -13 -11 -23
-5 -23 11 0 22 31 26 68 2 26 -9 38 -19 22z"/>
<path d="M1706 1284 c-9 -8 -21 -12 -27 -8 -8 4 -9 3 -5 -4 11 -18 29 -14 49
8 20 24 6 27 -17 4z"/>
<path d="M1990 1285 c-8 -9 -8 -15 -2 -15 18 0 42 12 42 21 0 14 -26 10 -40
-6z"/>
<path d="M1381 1266 c7 -15 15 -23 17 -16 3 7 -3 19 -13 28 -15 16 -16 15 -4
-12z"/>
<path d="M901 1225 c6 -30 65 -60 92 -47 22 11 22 11 -3 11 -14 1 -31 10 -38
22 -7 12 -16 18 -19 15 -4 -3 -13 0 -21 6 -12 10 -14 9 -11 -7z"/>
<path d="M1148 1213 c-6 -22 7 -52 17 -41 4 4 3 19 -2 35 -9 25 -10 26 -15 6z"/>
<path d="M1059 1208 c0 -2 -2 -11 -4 -21 -2 -10 -11 -27 -19 -36 -9 -10 -16
-22 -16 -27 0 -5 5 -2 10 7 6 11 18 15 35 11 15 -2 25 0 25 7 0 6 -6 11 -12
11 -8 0 -9 3 -3 8 15 11 15 42 -1 42 -8 0 -14 -1 -15 -2z"/>
<path d="M1760 1180 c0 -5 -8 -10 -17 -11 -12 0 -13 -2 -5 -6 10 -4 10 -8 0
-21 -11 -13 -8 -12 20 2 27 14 31 20 21 32 -14 17 -19 18 -19 4z"/>
<path d="M2091 1152 c-9 -17 -8 -40 4 -103 8 -45 15 -84 15 -88 0 -3 4 0 9 8
7 11 13 5 25 -24 19 -44 20 -78 5 -107 -9 -16 -8 -19 3 -16 7 3 14 19 16 37 3
32 4 32 22 16 14 -13 17 -22 10 -34 -5 -10 -5 -23 1 -32 7 -11 9 -10 9 7 0 11
3 24 7 28 13 12 13 46 1 43 -7 -1 -14 8 -16 21 -2 12 -7 22 -12 22 -4 0 -11 7
-14 16 -3 8 -2 12 3 9 5 -3 12 -1 16 5 3 5 -4 14 -17 19 -34 13 -50 36 -45 63
l4 23 8 -22 c8 -25 31 -31 37 -11 5 15 -20 68 -32 68 -5 0 -18 17 -28 37 -19
36 -20 36 -31 15z"/>
<path d="M1221 1128 c0 -16 2 -18 6 -8 3 8 11 18 17 22 7 5 4 8 -6 8 -12 0
-18 -7 -17 -22z"/>
<path d="M1670 1138 c0 -5 -4 -6 -10 -3 -5 3 -10 1 -10 -4 0 -6 7 -11 15 -11
8 0 15 4 15 9 0 5 9 7 20 4 11 -3 20 -1 20 5 0 5 -11 10 -25 10 -14 0 -25 -5
-25 -10z"/>
<path d="M1069 1128 c-6 -12 -4 -48 2 -48 5 0 9 9 9 19 0 11 8 22 18 24 13 4
11 5 -5 6 -13 0 -24 0 -24 -1z"/>
<path d="M925 1087 c-13 -15 -14 -22 -4 -31 9 -8 10 -8 6 0 -4 7 0 17 8 24 15
13 20 5 16 -26 -2 -20 26 -77 33 -66 3 6 2 13 -4 17 -16 10 -12 65 4 65 7 0
16 8 18 18 7 25 -55 25 -77 -1z"/>
<path d="M1126 1095 c4 -8 10 -12 15 -9 14 8 10 24 -6 24 -9 0 -12 -6 -9 -15z"/>
<path d="M1261 1073 c0 -11 3 -13 6 -5 2 6 9 10 14 6 5 -3 9 0 9 5 0 6 -7 11
-15 11 -8 0 -15 -8 -14 -17z"/>
<path d="M1061 1057 c11 -9 14 -26 12 -72 -5 -76 3 -69 12 11 6 58 5 62 -17
67 -19 5 -21 4 -7 -6z"/>
<path d="M2210 1052 c0 -14 6 -22 16 -22 14 0 15 3 3 18 -7 9 -15 19 -16 21
-2 2 -3 -5 -3 -17z"/>
<path d="M833 1041 c1 -15 4 -17 14 -9 7 5 10 14 7 19 -10 16 -23 9 -21 -10z"/>
<path d="M1160 1039 c7 -11 14 -19 16 -16 7 7 -7 37 -17 37 -6 0 -5 -9 1 -21z"/>
<path d="M996 1032 c6 -4 14 -14 17 -22 4 -10 6 -8 6 8 1 15 -5 22 -16 22 -11
0 -14 -3 -7 -8z"/>
<path d="M884 996 c-9 -20 -9 -23 2 -19 8 3 14 14 14 24 0 25 -3 24 -16 -5z"/>
<path d="M1345 1008 c-4 -11 -1 -24 9 -33 18 -18 21 -5 6 30 -7 18 -8 18 -15
3z"/>
<path d="M2410 1005 c7 -8 18 -15 25 -15 8 0 26 -10 42 -22 15 -13 35 -27 44
-33 93 -57 229 -172 252 -213 35 -60 101 -144 105 -133 2 7 -6 23 -18 36 -12
13 -19 28 -16 34 4 5 -6 22 -20 38 -15 15 -38 44 -53 63 -31 43 -69 80 -80 80
-5 0 -30 20 -57 45 -26 25 -55 45 -66 45 -10 0 -18 5 -18 10 0 6 -7 10 -15 10
-8 0 -15 4 -15 10 0 11 -50 39 -93 51 -24 7 -27 6 -17 -6z"/>
<path d="M2246 1002 c-3 -5 8 -24 23 -41 18 -20 32 -28 36 -21 4 6 -7 24 -23
41 -16 17 -32 26 -36 21z"/>
<path d="M747 985 c6 -11 8 -25 6 -32 -2 -6 1 -14 7 -18 6 -3 9 -1 8 6 -2 7 8
19 22 26 22 12 22 13 4 11 -11 -2 -29 4 -39 12 -17 14 -17 13 -8 -5z"/>
<path d="M1162 995 c4 -5 3 -14 -3 -21 -8 -9 -5 -11 11 -7 23 6 22 24 -1 31
-8 3 -11 1 -7 -3z"/>
<path d="M2012 980 c-7 -11 -24 -26 -37 -32 -14 -6 -25 -17 -25 -24 0 -7 -10
-20 -22 -28 -12 -9 -19 -18 -16 -22 9 -8 88 47 88 62 0 7 7 17 16 22 9 5 14
17 13 26 -4 14 -6 14 -17 -4z"/>
<path d="M613 980 c-13 -5 -23 -14 -23 -20 0 -5 -3 -9 -7 -8 -5 1 -25 -14 -46
-34 -21 -20 -44 -35 -51 -32 -7 3 -17 -6 -24 -20 -6 -14 -26 -29 -49 -36 -21
-7 -53 -26 -71 -41 -18 -16 -42 -29 -53 -29 -12 0 -30 -11 -41 -25 -11 -14
-26 -25 -34 -25 -8 0 -14 -7 -14 -15 0 -8 8 -15 18 -15 19 0 46 -38 41 -56 -2
-5 2 -19 9 -31 16 -28 2 -30 -21 -3 -19 22 -47 27 -46 8 1 -21 69 -72 80 -61
5 5 18 33 29 62 45 123 131 234 240 307 19 13 52 35 73 49 20 14 37 27 37 30
0 7 -22 5 -47 -5z m-303 -274 c0 -8 -3 -22 -6 -30 -5 -13 -9 -14 -20 -5 -17
14 -18 36 -1 42 21 9 27 7 27 -7z"/>
<path d="M1003 939 c9 -6 15 -14 12 -19 -3 -4 2 -10 10 -14 8 -3 15 -2 15 2
-1 15 -28 42 -41 42 -10 -1 -8 -4 4 -11z"/>
<path d="M1375 923 c-16 -16 -68 -47 -116 -69 -52 -25 -92 -51 -99 -65 -12
-21 -13 -21 -23 -3 -5 10 -18 27 -28 37 -16 15 -25 50 -20 79 0 4 -7 4 -16 1
-9 -4 -13 -8 -7 -10 5 -2 8 -18 7 -36 -3 -25 4 -40 32 -69 39 -42 55 -46 80
-22 9 9 18 14 22 11 3 -3 16 4 29 16 41 39 52 46 58 39 4 -3 10 -2 14 4 4 5
25 21 46 34 l39 24 24 -30 c13 -16 29 -41 36 -56 6 -16 15 -28 19 -28 4 0 10
-16 14 -36 4 -23 16 -41 33 -52 32 -20 61 -48 61 -60 0 -5 21 -30 46 -56 64
-64 81 -46 25 26 -22 29 -36 54 -31 56 18 6 59 -33 73 -70 9 -21 22 -38 31
-38 17 0 32 -42 21 -59 -10 -17 -53 -13 -64 6 -5 10 -12 15 -15 12 -9 -9 17
-36 40 -43 13 -4 28 1 41 13 18 17 22 18 27 6 5 -14 46 -22 46 -9 0 12 -25 52
-73 116 -51 69 -94 99 -167 113 -39 8 -56 19 -72 48 -7 15 -7 18 2 12 8 -5 11
-1 8 11 -2 11 -7 17 -12 16 -12 -5 -26 19 -26 46 0 14 -4 21 -11 16 -14 -8
-26 10 -39 59 -6 20 -14 37 -18 37 -4 0 -20 -12 -37 -27z"/>
<path d="M2082 895 c-45 -122 -135 -608 -146 -795 -1 -19 -6 -46 -10 -59 -5
-14 -4 -27 3 -34 8 -8 11 -7 11 3 0 13 2 13 10 0 8 -11 9 -8 4 13 -5 22 -3 27
12 27 17 1 18 2 3 13 -15 12 -15 18 0 85 16 72 16 73 44 68 17 -4 26 -2 22 4
-3 6 -15 10 -26 10 -22 0 -25 20 -6 39 10 10 9 15 -5 25 -10 7 -18 16 -18 20
0 9 24 3 32 -9 4 -5 8 0 8 13 0 12 6 22 13 22 7 1 5 6 -6 14 -12 9 -14 16 -8
21 20 12 12 33 -10 28 -18 -5 -19 -2 -14 23 19 80 26 103 38 108 9 4 9 7 1 11
-8 4 -9 15 -4 33 5 15 13 43 19 62 6 19 13 62 16 95 8 91 15 127 31 158 9 16
14 36 12 45 -2 9 -14 -10 -26 -43z m-80 -530 c3 -16 1 -25 -7 -25 -8 0 -10 9
-7 25 2 14 6 25 7 25 1 0 5 -11 7 -25z"/>
<path d="M2374 928 c20 -29 20 -62 0 -93 -20 -30 -3 -34 26 -5 44 44 34 120
-15 120 -25 0 -25 -1 -11 -22z"/>
<path d="M680 931 c0 -5 7 -12 16 -15 22 -9 24 -8 24 9 0 8 -9 15 -20 15 -11
0 -20 -4 -20 -9z"/>
<path d="M730 929 c0 -8 4 -19 8 -25 9 -14 72 -26 72 -14 0 6 -9 10 -20 10
-10 0 -28 10 -40 22 -14 15 -20 17 -20 7z"/>
<path d="M910 905 c0 -8 5 -15 10 -15 6 0 10 7 10 15 0 8 -4 15 -10 15 -5 0
-10 -7 -10 -15z"/>
<path d="M2282 909 c2 -7 10 -15 17 -17 8 -3 12 1 9 9 -2 7 -10 15 -17 17 -8
3 -12 -1 -9 -9z"/>
<path d="M861 878 c-7 -19 -8 -19 -14 -4 -4 10 -11 14 -17 11 -18 -11 -11 -20
37 -50 52 -34 117 -46 107 -21 -4 9 -16 13 -37 11 -18 -2 -26 -1 -19 2 6 2 12
9 12 14 0 6 -5 7 -12 3 -7 -5 -9 -2 -6 8 4 8 1 15 -7 15 -7 0 -11 -7 -8 -16 3
-9 -2 -5 -12 8 -15 19 -15 25 -4 32 11 7 11 9 1 9 -7 0 -16 -10 -21 -22z"/>
<path d="M960 878 c0 -8 6 -23 14 -33 13 -18 14 -18 9 8 -6 29 -23 48 -23 25z"/>
<path d="M569 848 c-12 -23 -12 -23 10 -4 23 21 26 26 11 26 -5 0 -15 -10 -21
-22z"/>
<path d="M1810 856 c0 -8 -12 -24 -27 -36 -16 -12 -26 -25 -23 -28 3 -3 -12
-15 -32 -26 -38 -19 -58 -46 -35 -46 17 0 79 56 112 99 27 37 31 51 15 51 -5
0 -10 -6 -10 -14z"/>
<path d="M2233 849 c-1 -11 5 -23 13 -26 7 -3 12 -9 9 -13 -3 -5 -1 -11 5 -15
5 -3 10 0 10 7 0 7 9 -4 20 -25 11 -21 19 -41 17 -45 -3 -4 -1 -16 3 -27 6
-17 9 -14 15 16 11 56 3 92 -23 105 -13 6 -23 15 -22 19 2 9 -20 25 -35 25 -6
0 -11 -9 -12 -21z"/>
<path d="M996 824 c-4 -9 -4 -19 -1 -22 3 -3 5 0 5 7 0 7 5 9 10 6 8 -5 8 -11
1 -19 -22 -27 148 -150 173 -125 5 5 15 1 22 -9 12 -15 15 -15 24 -2 8 12 10
13 10 1 0 -8 3 -11 7 -8 10 11 -30 43 -49 39 -9 -2 -19 2 -23 7 -3 6 -12 11
-18 11 -7 0 -6 -4 3 -10 13 -8 13 -10 -1 -10 -9 0 -20 7 -23 16 -5 13 -9 14
-20 5 -11 -9 -15 -7 -21 6 -5 10 -7 22 -6 26 1 5 -2 6 -7 3 -9 -6 -35 23 -40
45 -7 30 -7 34 6 31 8 -1 11 2 7 8 -5 8 -11 8 -19 1 -9 -7 -16 -7 -23 0 -7 7
-12 5 -17 -7z"/>
<path d="M186 788 c-5 -16 -5 -36 0 -45 7 -16 8 -15 11 5 3 12 3 32 0 45 -3
21 -4 20 -11 -5z"/>
<path d="M640 801 c0 -7 37 -41 44 -41 2 0 2 9 -1 19 -4 18 -43 38 -43 22z"/>
<path d="M1530 800 c0 -5 4 -10 10 -10 5 0 7 -7 4 -15 -5 -11 1 -15 24 -15 16
0 41 -9 56 -21 33 -26 34 -14 0 17 -14 13 -34 24 -45 24 -11 0 -22 7 -25 15
-7 17 -24 20 -24 5z"/>
<path d="M2134 799 c-2 -4 0 -10 6 -14 11 -7 30 2 30 14 0 10 -29 10 -36 0z"/>
<path d="M2410 788 c0 -12 9 -31 20 -43 51 -53 60 -67 62 -97 1 -17 13 -43 27
-57 13 -14 21 -21 18 -14 -4 6 -1 14 5 16 8 4 4 8 -9 12 -21 7 -28 26 -24 61
1 6 -6 17 -14 24 -8 7 -15 18 -15 26 0 7 -11 25 -25 40 -14 15 -25 33 -25 40
0 8 -4 14 -10 14 -5 0 -10 -10 -10 -22z"/>
<path d="M2340 786 c0 -9 7 -12 20 -9 11 3 17 9 14 14 -8 14 -34 10 -34 -5z"/>
<path d="M460 786 c0 -2 11 -6 25 -8 14 -3 25 -1 25 3 0 5 -11 9 -25 9 -14 0
-25 -2 -25 -4z"/>
<path d="M1355 760 c5 -14 8 -31 8 -37 0 -7 3 -13 6 -13 4 0 15 -16 25 -35 21
-39 75 -75 112 -75 30 0 92 -79 72 -92 -9 -5 -8 -8 5 -8 10 0 15 -4 12 -10 -3
-5 1 -10 9 -10 9 0 16 -7 16 -15 0 -8 3 -15 8 -15 10 0 32 -50 32 -72 0 -10 4
-18 8 -18 5 0 17 -16 28 -35 10 -19 23 -35 27 -35 5 0 7 -7 4 -15 -4 -8 -2
-17 4 -21 10 -6 45 -86 40 -92 -1 -2 5 -9 14 -15 8 -7 17 -28 19 -47 5 -58 18
-100 31 -100 12 0 11 11 -9 109 -3 13 -19 52 -36 87 -16 35 -30 68 -30 74 0 6
-11 28 -25 50 -14 22 -25 44 -25 50 0 5 -4 10 -9 10 -5 0 -11 8 -15 18 -3 9
-10 25 -16 35 -5 9 -15 25 -20 35 -40 69 -76 115 -96 123 -13 4 -24 12 -23 16
5 27 -2 33 -22 22 -23 -12 -39 0 -39 29 0 9 -5 10 -19 2 -12 -6 -22 -6 -25 -1
-4 5 6 14 21 20 27 10 27 11 -5 5 -31 -6 -33 -4 -27 16 5 17 2 23 -14 27 -12
3 -21 10 -21 15 0 5 -7 17 -16 26 -15 15 -16 14 -9 -8z"/>
<path d="M2210 771 c0 -5 3 -17 6 -25 5 -13 9 -14 20 -5 21 17 17 39 -6 39
-11 0 -20 -4 -20 -9z"/>
<path d="M470 765 c0 -2 14 -12 31 -21 24 -12 30 -12 26 -2 -2 7 -10 12 -16
11 -6 -2 -11 2 -11 7 0 6 -7 10 -15 10 -8 0 -15 -2 -15 -5z"/>
<path d="M800 758 c0 -9 5 -20 11 -23 17 -11 18 -2 3 19 -12 17 -14 17 -14 4z"/>
<path d="M724 686 c25 -35 42 -67 39 -70 -4 -3 -2 -6 4 -6 6 0 14 -7 17 -16 6
-15 4 -15 -11 -3 -15 12 -15 11 1 -13 17 -26 35 -41 20 -16 -4 6 -3 8 4 4 8
-5 44 -94 47 -116 0 -3 3 -9 6 -15 3 -5 16 -44 28 -85 13 -41 34 -102 47 -135
24 -61 31 -92 14 -65 -5 8 -12 11 -16 8 -3 -4 8 -27 26 -51 17 -25 30 -53 28
-63 -3 -16 -6 -15 -18 7 -32 57 -100 147 -133 175 -59 50 -77 64 -83 64 -14 0
-81 36 -108 57 -21 18 -32 21 -41 13 -10 -8 -14 -7 -17 6 -1 10 -12 18 -23 19
-11 2 -29 6 -40 11 -50 20 40 -46 109 -80 41 -21 87 -49 101 -62 14 -13 29
-24 33 -24 14 0 84 -73 109 -114 39 -63 94 -116 121 -116 21 0 23 3 18 36 -4
19 -11 44 -16 54 -6 10 -10 29 -10 43 0 13 -3 27 -7 31 -5 4 -8 11 -9 14 -1
15 -26 95 -33 111 -12 23 -42 111 -51 146 -9 40 -62 159 -72 163 -5 2 -6 8 -2
13 3 5 0 9 -5 9 -6 0 -11 7 -11 15 0 8 -4 15 -8 15 -10 0 -37 50 -34 63 1 4
-4 6 -10 5 -7 -2 -12 5 -12 15 1 12 -6 17 -23 17 -23 0 -23 -2 21 -64z"/>
<path d="M850 740 c-13 -9 -13 -10 0 -10 8 0 22 5 30 10 13 9 13 10 0 10 -8 0
-22 -5 -30 -10z"/>
<path d="M580 693 c25 -23 47 -39 50 -36 3 2 -4 11 -15 19 -17 13 -18 16 -5
24 8 5 11 12 7 17 -5 4 -12 1 -16 -6 -7 -11 -14 -10 -37 5 -18 11 -12 2 16
-23z"/>
<path d="M883 719 c-25 -9 -30 -19 -10 -19 15 0 43 17 37 23 -3 3 -15 1 -27
-4z"/>
<path d="M2189 711 c6 -10 7 -21 4 -25 -3 -3 -1 -6 5 -6 7 0 12 4 12 9 0 18
-12 41 -21 41 -6 0 -6 -8 0 -19z"/>
<path d="M388 683 c-2 -10 -1 -29 3 -43 6 -20 7 -17 8 18 1 44 -4 54 -11 25z"/>
<path d="M460 688 c0 -26 15 -30 35 -8 16 18 16 20 2 20 -10 0 -17 -6 -17 -12
0 -9 -4 -8 -10 2 -8 13 -10 13 -10 -2z"/>
<path d="M905 690 c-4 -6 -10 -8 -15 -5 -13 8 -21 -11 -13 -31 6 -15 7 -15 14
4 10 26 26 29 31 5 3 -15 5 -15 10 -3 7 18 -18 45 -27 30z"/>
<path d="M1272 685 c-11 -13 -10 -15 5 -15 15 0 15 -2 -3 -15 -14 -11 -15 -14
-4 -15 30 0 43 16 31 39 -14 25 -12 24 -29 6z"/>
<path d="M2337 680 c3 -11 12 -20 19 -20 11 0 10 5 -3 20 -10 11 -18 20 -19
20 -1 0 0 -9 3 -20z"/>
<path d="M2230 666 c0 -29 -12 -33 -33 -11 -8 8 -17 11 -21 8 -12 -12 -6 -21
19 -27 17 -4 25 -13 25 -29 1 -20 1 -21 11 -4 6 10 8 21 6 24 -3 3 -2 16 3 29
6 14 6 26 0 29 -6 4 -10 -5 -10 -19z"/>
<path d="M2600 682 c0 -4 12 -18 25 -31 14 -13 23 -26 19 -30 -3 -3 -12 3 -20
13 -16 23 -19 14 -4 -15 6 -10 18 -19 27 -19 12 0 13 -3 4 -14 -8 -10 -8 -20
4 -42 8 -16 15 -33 15 -37 0 -4 7 -19 17 -33 12 -18 18 -22 24 -13 4 7 5 18 1
24 -4 5 -7 12 -8 15 0 3 -6 19 -13 35 -7 17 -15 44 -18 60 -3 17 -14 38 -24
48 -11 10 -19 22 -19 26 0 5 -7 11 -15 15 -8 3 -15 2 -15 -2z"/>
<path d="M2287 664 c4 -10 0 -12 -11 -8 -9 3 -16 1 -16 -5 0 -6 5 -11 10 -11
6 0 10 -8 10 -17 1 -14 4 -12 15 7 18 32 18 37 1 43 -10 4 -13 1 -9 -9z"/>
<path d="M531 636 c-16 -19 -11 -29 8 -17 7 5 12 14 9 21 -3 9 -8 7 -17 -4z"/>
<path d="M940 631 c0 -12 5 -21 10 -21 6 0 10 6 10 14 0 8 -4 18 -10 21 -5 3
-10 -3 -10 -14z"/>
<path d="M460 626 c0 -7 6 -19 14 -25 11 -9 15 -7 19 8 3 12 -1 22 -10 25 -21
8 -23 8 -23 -8z"/>
<path d="M1003 627 c2 -7 12 -12 21 -12 10 0 23 -8 30 -18 7 -9 18 -17 24 -17
6 0 0 11 -12 24 -27 26 -70 42 -63 23z"/>
<path d="M1302 628 c-15 -15 -16 -31 -1 -22 6 3 15 0 20 -7 6 -10 11 -11 19
-3 7 7 5 15 -8 27 -14 13 -21 14 -30 5z"/>
<path d="M1132 590 c1 -16 4 -30 7 -30 4 0 7 14 6 30 0 17 -3 30 -7 30 -4 0
-6 -13 -6 -30z"/>
<path d="M580 600 c0 -6 7 -13 15 -17 24 -9 27 1 5 15 -13 8 -20 8 -20 2z"/>
<path d="M2260 586 c0 -19 -19 -55 -111 -216 -30 -52 -61 -111 -69 -130 -7
-19 -24 -56 -37 -82 -25 -51 -18 -61 21 -27 16 14 22 27 18 42 -5 18 -3 20 9
10 10 -8 20 -9 29 -3 12 8 11 10 -6 10 -29 0 -36 10 -19 27 8 8 15 25 15 38 0
13 6 28 13 32 7 4 19 23 26 41 8 17 18 32 23 32 6 0 8 7 4 15 -3 8 -1 15 4 15
6 0 9 5 8 12 -2 6 6 14 16 16 16 3 18 0 13 -27 -5 -22 -3 -30 4 -25 7 4 9 21
6 40 -4 21 -2 32 4 28 5 -3 9 -2 8 3 -1 4 -1 25 0 46 1 30 6 40 21 44 17 4 20
12 16 35 -5 34 -16 50 -16 24z"/>
<path d="M2410 589 c0 -5 -5 -7 -10 -4 -6 4 -9 1 -8 -7 2 -8 -5 -12 -19 -10
-13 2 -23 -2 -23 -7 0 -17 35 -13 58 8 24 20 28 31 12 31 -5 0 -10 -5 -10 -11z"/>
<path d="M423 574 c-7 -7 -10 -21 -6 -30 4 -11 3 -15 -5 -10 -6 3 -13 2 -16
-3 -3 -5 2 -11 12 -14 9 -2 24 -8 33 -11 10 -5 16 -2 16 9 0 8 -6 15 -14 15
-16 0 -17 37 -1 42 7 3 8 7 3 10 -6 3 -16 0 -22 -8z"/>
<path d="M1260 583 c1 -12 38 -58 43 -53 3 3 -6 18 -19 33 -13 15 -24 24 -24
20z"/>
<path d="M2120 587 c0 -2 15 -14 33 -27 l32 -23 -24 26 c-21 23 -41 35 -41 24z"/>
<path d="M359 578 c-5 -9 -4 -56 1 -52 5 6 8 54 3 54 -2 0 -4 -1 -4 -2z"/>
<path d="M930 571 c0 -17 18 -21 24 -6 3 9 0 15 -9 15 -8 0 -15 -4 -15 -9z"/>
<path d="M1333 564 c-3 -8 -1 -20 6 -27 8 -8 11 -7 11 3 0 11 3 11 12 2 22
-22 29 -13 11 13 -21 29 -31 31 -40 9z"/>
<path d="M510 562 c0 -5 7 -13 16 -16 10 -4 14 -1 12 6 -5 15 -28 23 -28 10z"/>
<path d="M612 544 c7 -15 14 -21 16 -15 5 16 -5 41 -17 41 -7 0 -6 -10 1 -26z"/>
<path d="M2881 569 c-1 -3 8 -24 19 -47 11 -22 20 -48 20 -56 0 -8 5 -18 10
-21 15 -9 12 27 -4 48 -8 10 -12 27 -9 37 4 14 0 20 -10 20 -8 0 -18 6 -20 13
-3 6 -6 9 -6 6z"/>
<path d="M2099 558 c-1 -2 -3 -14 -4 -27 -2 -23 -2 -24 11 -6 16 22 18 35 4
35 -5 0 -11 -1 -11 -2z"/>
<path d="M2508 553 c-26 -6 -22 -18 7 -21 14 -1 25 2 25 8 0 12 -12 17 -32 13z"/>
<path d="M2568 533 c-10 -2 -18 -9 -18 -14 0 -5 -7 -9 -15 -9 -9 0 -12 -6 -9
-15 6 -14 8 -13 19 1 7 10 19 15 29 11 9 -4 16 -2 16 4 0 6 9 7 22 3 20 -6 21
-5 6 10 -17 16 -20 17 -50 9z"/>
<path d="M295 518 c-21 -12 -35 -28 -35 -41 0 -5 5 -5 10 -2 6 3 10 0 10 -7 1
-7 7 2 15 20 8 18 19 31 25 27 6 -4 7 -11 4 -17 -4 -7 -2 -8 4 -4 16 10 15 36
0 36 -7 0 -22 -6 -33 -12z"/>
<path d="M510 512 c0 -4 10 -12 23 -17 12 -6 23 -19 23 -30 1 -11 2 -29 3 -40
1 -16 3 -17 10 -5 10 18 2 92 -9 85 -5 -3 -11 -1 -15 5 -7 12 -35 14 -35 2z"/>
<path d="M1182 500 c15 -24 33 -27 24 -4 -3 9 -6 18 -6 20 0 2 -7 4 -15 4 -13
0 -13 -3 -3 -20z"/>
<path d="M1368 497 c-2 -13 2 -29 9 -36 18 -17 30 -6 14 12 -6 8 -9 22 -5 31
3 9 2 16 -4 16 -5 0 -12 -10 -14 -23z"/>
<path d="M736 494 c-8 -22 1 -31 16 -16 9 9 9 15 1 23 -7 7 -12 5 -17 -7z"/>
<path d="M202 449 c3 -60 18 -73 35 -30 9 24 8 31 -3 35 -8 3 -14 12 -14 20 0
8 -5 18 -11 21 -7 5 -9 -11 -7 -46z"/>
<path d="M2055 490 c-4 -6 -11 -8 -16 -5 -5 4 -9 2 -9 -3 0 -6 6 -12 14 -15
17 -7 42 18 27 27 -5 4 -12 2 -16 -4z"/>
<path d="M2627 475 c-4 -8 -2 -15 4 -15 6 0 7 -4 4 -10 -3 -5 1 -10 11 -10 14
0 15 2 3 17 -8 9 -12 18 -11 20 2 3 2 7 -1 9 -2 3 -7 -2 -10 -11z"/>
<path d="M373 466 c3 -8 2 -16 -3 -18 -6 -2 -5 -9 0 -18 8 -12 11 -11 16 8 4
12 11 22 18 22 6 0 4 5 -4 10 -22 14 -33 12 -27 -4z"/>
<path d="M325 461 c-3 -6 -11 -9 -16 -6 -5 4 -9 -3 -9 -15 l0 -21 22 21 c12
11 19 22 16 26 -3 3 -9 0 -13 -5z"/>
<path d="M467 463 c-3 -5 1 -14 9 -21 12 -10 14 -10 14 2 0 17 -16 30 -23 19z"/>
<path d="M754 458 c-7 -11 18 -10 36 2 11 7 10 9 -8 7 -13 -1 -26 -5 -28 -9z"/>
<path d="M1208 458 c13 -7 21 -17 18 -25 -3 -7 -1 -13 4 -13 6 0 10 11 10 25
0 21 -5 25 -27 24 -28 0 -28 0 -5 -11z"/>
<path d="M2859 451 c6 -10 7 -21 4 -25 -3 -3 -1 -6 5 -6 7 0 12 11 12 25 0 16
-6 25 -15 25 -12 0 -13 -4 -6 -19z"/>
<path d="M1804 445 c4 -11 -1 -15 -19 -15 -14 0 -25 -4 -25 -10 0 -5 14 -10
30 -10 23 0 30 -4 30 -20 0 -11 5 -20 10 -20 6 0 8 11 3 28 -4 15 -7 35 -7 45
0 9 -7 17 -14 17 -8 0 -12 -6 -8 -15z"/>
<path d="M2023 440 c-1 -15 4 -20 23 -20 15 0 24 -6 24 -15 0 -8 5 -15 10 -15
16 0 12 18 -12 45 -26 30 -43 32 -45 5z"/>
<path d="M2410 449 c0 -5 11 -9 25 -9 14 0 25 2 25 4 0 2 -11 6 -25 8 -14 3
-25 1 -25 -3z"/>
<path d="M1700 441 c0 -6 11 -23 25 -38 l24 -28 1 28 c0 18 -5 27 -16 27 -8 0
-12 5 -9 10 3 6 -1 10 -9 10 -9 0 -16 -4 -16 -9z"/>
<path d="M2717 431 c-2 -10 -1 -25 4 -32 6 -10 9 -4 9 19 0 36 -5 42 -13 13z"/>
<path d="M2278 422 c-38 -23 -36 -36 2 -17 17 9 30 20 30 25 0 12 2 12 -32 -8z"/>
<path d="M419 428 c-1 -2 -2 -19 -4 -38 -1 -19 0 -29 2 -22 7 19 53 -28 53
-54 0 -12 7 -27 15 -34 8 -7 13 -15 11 -19 -3 -4 -1 -13 5 -21 7 -12 9 -12 9
4 0 15 3 16 15 6 8 -7 15 -9 15 -4 0 4 5 3 12 -4 7 -7 18 -12 26 -12 8 0 20
-7 27 -16 10 -14 15 -15 31 -5 16 11 17 12 1 7 -10 -3 -20 0 -23 8 -3 8 -14
16 -25 19 -13 4 -19 14 -20 34 0 27 -1 27 -9 5 l-10 -23 -30 22 c-33 25 -37
35 -17 42 7 3 4 6 -7 6 -13 1 -17 6 -13 21 4 17 2 20 -14 15 -13 -4 -19 -1
-20 9 -1 9 -3 21 -4 26 -1 6 -3 15 -4 20 -1 9 -19 15 -22 8z"/>
<path d="M1420 410 c10 -18 40 -18 40 1 0 4 -7 6 -15 3 -8 -4 -15 -1 -15 5 0
6 -5 11 -10 11 -7 0 -7 -6 0 -20z"/>
<path d="M2777 423 c-10 -9 -9 -33 1 -33 4 0 8 9 9 20 2 21 0 24 -10 13z"/>
<path d="M650 411 c0 -5 7 -11 15 -15 8 -3 14 -11 13 -18 -2 -6 5 -14 15 -16
32 -7 20 35 -13 47 -16 5 -30 6 -30 2z"/>
<path d="M1120 405 c0 -8 7 -15 16 -15 14 0 14 3 4 15 -7 8 -14 15 -16 15 -2
0 -4 -7 -4 -15z"/>
<path d="M2385 402 c4 -9 8 -23 8 -31 0 -10 3 -10 12 3 7 8 15 13 18 10 3 -3
3 3 1 13 -3 10 -14 20 -25 20 -16 2 -19 -2 -14 -15z"/>
<path d="M2531 411 c-23 -15 3 -20 29 -5 22 12 23 13 5 13 -11 1 -26 -3 -34
-8z"/>
<path d="M275 400 c3 -5 1 -10 -4 -10 -6 0 -11 -9 -11 -20 0 -11 5 -20 10 -20
6 0 10 6 10 14 0 8 5 16 12 18 13 5 2 28 -13 28 -6 0 -7 -4 -4 -10z"/>
<path d="M366 401 c-4 -5 -2 -20 3 -33 7 -16 10 -18 10 -6 1 9 4 23 7 32 6 17
-11 23 -20 7z"/>
<path d="M1030 400 c19 -13 30 -13 30 0 0 6 -10 10 -22 10 -19 0 -20 -2 -8
-10z"/>
<path d="M1527 375 c2 -16 10 -36 18 -45 19 -18 20 -1 1 25 -7 11 -16 27 -19
35 -2 8 -3 2 0 -15z"/>
<path d="M2123 398 c-15 -22 -33 -68 -25 -68 4 0 15 18 24 40 17 41 17 49 1
28z"/>
<path d="M2676 394 c-4 -9 -4 -19 -1 -22 3 -3 5 1 5 9 0 11 2 11 10 -1 8 -12
10 -11 10 8 0 26 -15 29 -24 6z"/>
<path d="M2874 393 c-3 -10 -10 -26 -15 -36 -9 -16 -5 -40 4 -26 16 27 37 68
37 73 0 14 -21 5 -26 -11z"/>
<path d="M2820 390 c0 -5 5 -10 11 -10 5 0 7 -4 4 -10 -3 -5 -2 -10 3 -10 17
0 21 13 7 26 -16 16 -25 18 -25 4z"/>
<path d="M1756 374 c-6 -17 37 -78 48 -67 10 10 7 25 -4 18 -7 -4 -9 2 -5 18
5 19 2 28 -13 36 -16 8 -21 7 -26 -5z"/>
<path d="M1880 375 c0 -9 5 -15 11 -13 6 2 11 8 11 13 0 5 -5 11 -11 13 -6 2
-11 -4 -11 -13z"/>
<path d="M223 366 c3 -8 -1 -20 -9 -26 -19 -17 -21 -344 -1 -337 6 2 11 11 9
21 -4 21 14 21 28 -2 9 -14 10 -13 4 7 -6 24 -12 50 -13 64 -1 4 -8 7 -17 7
-13 0 -14 3 -5 13 6 8 8 17 4 20 -3 4 1 7 9 7 16 0 16 7 6 78 -1 6 -7 12 -15
12 -13 0 -13 26 0 48 5 6 5 12 1 12 -3 0 -1 7 6 15 7 8 16 12 21 9 11 -6 12
10 2 20 -5 4 -9 12 -9 17 -1 5 -2 14 -3 19 0 6 -6 10 -12 10 -6 0 -9 -6 -6
-14z"/>
<path d="M2315 371 c-3 -6 -23 -12 -43 -12 -22 -1 -29 -3 -17 -6 11 -3 23 -10
27 -17 6 -8 8 -7 8 2 0 6 6 12 14 12 16 0 31 18 23 26 -3 3 -8 1 -12 -5z"/>
<path d="M320 362 c0 -7 -7 -12 -15 -12 -8 0 -15 -7 -15 -15 0 -19 9 -19 34 0
16 12 17 18 8 27 -9 9 -12 9 -12 0z"/>
<path d="M2740 355 c12 -15 30 -12 30 6 0 5 -10 9 -21 9 -18 0 -19 -2 -9 -15z"/>
<path d="M2916 356 c3 -8 -4 -28 -16 -44 -12 -17 -20 -35 -16 -40 3 -6 -15
-24 -41 -41 -69 -45 -103 -74 -103 -88 0 -7 -16 -15 -35 -19 -19 -3 -35 -10
-35 -15 0 -5 12 -4 26 1 31 12 44 6 44 -21 0 -11 7 -19 16 -19 8 0 13 4 10 9
-3 5 19 21 50 37 31 15 67 42 81 59 15 16 30 29 34 28 5 -2 6 3 3 11 -3 8 -1
17 5 21 6 3 11 10 11 16 0 15 -51 -34 -61 -59 -5 -12 -17 -26 -26 -29 -10 -4
-33 -18 -52 -30 -31 -21 -36 -22 -44 -8 -10 19 16 65 37 65 20 0 118 83 106
90 -12 7 -3 40 11 40 12 0 11 37 -1 45 -5 3 -7 0 -4 -9z"/>
<path d="M395 341 c-3 -5 6 -21 20 -35 14 -14 25 -32 25 -41 0 -13 3 -14 15
-3 12 11 11 16 -10 35 -14 12 -25 26 -25 32 0 14 -18 23 -25 12z"/>
<path d="M1252 338 c2 -6 10 -14 16 -16 7 -2 10 2 6 12 -7 18 -28 22 -22 4z"/>
<path d="M1313 326 c7 -14 13 -23 15 -21 7 6 -9 45 -18 45 -4 0 -3 -11 3 -24z"/>
<path d="M2405 340 c-3 -5 1 -10 9 -10 9 0 16 -7 16 -15 0 -8 5 -15 11 -15 6
0 8 7 5 16 -3 9 -6 20 -6 25 0 12 -27 12 -35 -1z"/>
<path d="M2551 333 c-1 -26 7 -32 37 -24 l22 6 -21 13 c-12 8 -18 9 -14 3 3
-6 2 -11 -4 -11 -5 0 -12 8 -14 18 -4 13 -5 12 -6 -5z"/>
<path d="M2820 336 c0 -9 5 -16 11 -16 6 0 8 -7 5 -15 -3 -8 -9 -22 -12 -30
-10 -24 12 -17 23 8 8 18 7 28 -8 46 -15 18 -19 19 -19 7z"/>
<path d="M2730 332 c0 -4 4 -13 9 -20 7 -11 9 -11 14 1 3 9 -1 18 -9 21 -8 3
-14 2 -14 -2z"/>
<path d="M2764 305 c-25 -28 -30 -42 -30 -80 1 -50 16 -59 34 -20 16 34 15 48
-2 42 -8 -3 -17 -3 -20 0 -9 9 15 34 25 27 5 -3 9 6 9 20 0 14 8 30 18 35 9 6
13 11 7 11 -5 0 -24 -16 -41 -35z"/>
<path d="M1082 306 c2 -24 24 -43 36 -31 3 3 0 5 -6 5 -7 0 -12 4 -12 9 0 6 9
8 20 6 11 -2 20 1 20 6 0 6 5 7 12 3 6 -4 8 -3 5 4 -4 5 -16 8 -27 5 -11 -3
-27 0 -35 7 -13 11 -15 8 -13 -14z"/>
<path d="M1525 311 c-7 -12 15 -61 28 -61 5 0 2 11 -7 25 -9 14 -14 30 -11 35
3 6 4 10 1 10 -3 0 -7 -4 -11 -9z"/>
<path d="M2340 306 c0 -9 7 -12 20 -9 11 3 17 9 14 14 -8 14 -34 10 -34 -5z"/>
<path d="M270 297 c0 -8 6 -14 13 -14 8 0 14 6 14 14 0 7 -6 13 -14 13 -7 0
-13 -6 -13 -13z"/>
<path d="M312 273 c0 -21 6 -44 12 -52 8 -11 8 -13 -1 -7 -19 11 -15 -5 5 -20
10 -8 12 -13 5 -14 -7 0 -13 -7 -13 -15 0 -8 -4 -15 -9 -15 -5 0 -6 -10 -3
-22 6 -23 6 -23 13 2 l6 25 12 -29 c6 -16 14 -26 17 -23 3 3 -1 20 -9 36 -13
26 -13 31 -1 31 8 0 14 -7 14 -16 0 -9 9 -48 20 -85 21 -68 21 -69 56 -69 30
0 34 2 22 15 -31 34 -36 43 -31 49 4 3 -2 15 -12 26 -20 22 -24 34 -29 85 -2
19 -11 34 -24 40 -31 14 -30 55 1 56 21 0 21 1 2 8 -11 5 -21 4 -23 0 -2 -5
-8 -9 -14 -9 -6 0 -8 7 -5 15 4 8 2 17 -3 20 -5 3 -9 -11 -8 -32z"/>
<path d="M1811 295 c-25 -9 -29 -13 -17 -18 9 -4 13 -13 10 -22 -4 -9 -1 -15
9 -15 10 0 13 8 9 25 -3 20 -1 24 12 19 11 -4 16 -1 16 10 0 9 -1 15 -2 15 -2
-1 -18 -7 -37 -14z"/>
<path d="M2050 291 c-6 -12 -16 -18 -22 -15 -7 4 -8 3 -4 -4 12 -19 33 -14 39
10 8 30 1 34 -13 9z"/>
<path d="M1371 289 c-1 -10 9 -19 24 -21 20 -4 23 -3 14 8 -6 8 -15 12 -19 9
-5 -3 -11 1 -13 7 -4 8 -6 7 -6 -3z"/>
<path d="M2506 292 c-3 -6 3 -12 15 -15 12 -3 19 -1 16 6 -5 15 -24 20 -31 9z"/>
<path d="M1467 273 c3 -7 11 -13 19 -13 8 0 14 6 14 13 0 7 -8 13 -19 13 -11
0 -17 -5 -14 -13z"/>
<path d="M230 261 c0 -11 4 -21 9 -21 18 0 21 18 6 30 -13 10 -15 9 -15 -9z"/>
<path d="M1030 263 c0 -21 10 -26 48 -22 4 0 13 -17 20 -38 11 -35 12 -36 7
-5 -2 17 0 32 5 32 6 0 10 5 10 10 0 6 -14 10 -31 10 -19 0 -37 7 -45 18 -12
16 -13 15 -14 -5z"/>
<path d="M1585 270 c8 -12 66 -18 62 -6 -2 6 -18 12 -35 13 -18 1 -30 -2 -27
-7z"/>
<path d="M1690 250 c13 -23 20 -26 20 -6 0 8 -7 16 -15 20 -13 4 -14 2 -5 -14z"/>
<path d="M2346 262 c-9 -15 2 -52 15 -52 11 0 11 17 0 44 -5 14 -10 16 -15 8z"/>
<path d="M2615 250 c-3 -5 1 -10 9 -10 9 0 16 -4 16 -10 0 -5 7 -10 15 -10 12
0 12 3 -2 20 -19 22 -29 25 -38 10z"/>
<path d="M2977 239 c-3 -12 -1 -19 5 -17 13 5 20 38 8 38 -4 0 -10 -9 -13 -21z"/>
<path d="M1835 231 c-12 -13 -12 -16 3 -27 9 -7 17 -18 18 -26 3 -30 17 -58
30 -58 8 0 14 5 14 10 0 6 -5 10 -11 10 -5 0 -7 5 -4 10 3 6 -3 22 -15 37
l-21 27 20 8 c12 4 21 11 21 16 0 13 -39 9 -55 -7z"/>
<path d="M2499 248 c-8 -27 -6 -38 5 -29 7 6 16 8 20 4 4 -4 4 0 0 10 -5 14
-22 24 -25 15z"/>
<path d="M441 215 c0 -11 3 -14 6 -7 8 19 23 14 23 -8 0 -11 5 -20 11 -20 6 0
8 7 5 16 -3 9 -6 22 -6 29 0 8 -9 13 -20 12 -13 -1 -20 -8 -19 -22z"/>
<path d="M1207 233 c-12 -12 -7 -33 8 -33 17 0 19 9 7 28 -5 7 -11 9 -15 5z"/>
<path d="M1345 230 c-17 -7 -15 -9 13 -9 17 -1 32 4 32 9 0 12 -17 12 -45 0z"/>
<path d="M1640 234 c0 -11 49 -84 56 -84 2 0 -1 10 -7 23 -17 31 -49 71 -49
61z"/>
<path d="M2570 220 c0 -5 9 -10 20 -10 11 0 20 5 20 10 0 6 -9 10 -20 10 -11
0 -20 -4 -20 -10z"/>
<path d="M570 200 c0 -17 -4 -19 -25 -14 -37 9 -30 -5 10 -22 23 -9 41 -11 52
-6 34 19 146 -38 114 -57 -6 -4 5 -13 25 -20 19 -7 38 -10 41 -7 4 3 14 -1 23
-9 14 -13 16 -12 17 6 1 11 -4 19 -10 18 -21 -3 -77 13 -77 22 0 5 8 5 18 2
34 -13 -15 27 -53 42 -19 9 -35 21 -35 28 0 9 -3 8 -9 -2 -6 -9 -14 -10 -27
-3 -11 5 -25 7 -31 5 -7 -3 -13 2 -13 11 0 8 -4 18 -10 21 -5 3 -10 -3 -10
-15z"/>
<path d="M1300 190 c0 -24 3 -28 17 -23 9 4 12 8 6 10 -6 2 -9 13 -6 23 3 11
0 20 -6 20 -6 0 -11 -13 -11 -30z"/>
<path d="M1120 199 c0 -6 5 -7 10 -4 6 3 10 1 10 -5 0 -6 5 -8 10 -5 16 10 11
21 -10 22 -11 1 -20 -3 -20 -8z"/>
<path d="M2270 201 c0 -5 9 -11 19 -14 14 -3 18 -1 14 9 -6 15 -33 19 -33 5z"/>
<path d="M2433 191 c1 -11 8 -21 15 -21 12 0 12 3 1 18 -7 9 -14 19 -16 21 -1
2 -1 -6 0 -18z"/>
<path d="M2960 197 c0 -9 -9 -25 -20 -35 -12 -11 -18 -27 -15 -40 2 -12 1 -22
-3 -22 -4 0 -12 -16 -18 -35 -7 -22 -7 -35 -1 -35 5 0 4 -7 -3 -15 -16 -19 -1
-19 24 0 21 16 49 65 37 65 -4 0 -14 -11 -21 -25 -13 -24 -30 -34 -30 -17 0 4
9 24 20 45 11 21 17 43 14 49 -4 7 -3 8 4 4 12 -7 29 60 18 71 -3 4 -6 -1 -6
-10z"/>
<path d="M1450 185 c-14 -16 -10 -18 14 -9 9 3 16 10 16 15 0 14 -16 11 -30
-6z"/>
<path d="M2381 183 c-1 -7 -8 -10 -16 -7 -16 7 -22 -21 -6 -30 12 -8 34 21 28
36 -4 10 -6 10 -6 1z"/>
<path d="M2486 174 c-3 -7 2 -10 15 -7 22 6 26 20 4 20 -8 0 -16 -6 -19 -13z"/>
<path d="M2540 180 c0 -12 28 -21 35 -11 2 5 -4 11 -15 14 -11 3 -20 2 -20 -3z"/>
<path d="M2146 145 c4 -8 1 -15 -5 -15 -6 0 -11 -4 -11 -10 0 -5 7 -10 15 -10
11 0 15 -14 16 -57 1 -32 3 -50 6 -40 4 14 10 17 26 12 33 -10 108 -12 113 -3
5 8 -38 12 -83 8 -13 -1 -23 4 -23 10 0 6 -4 8 -10 5 -11 -7 -21 31 -29 108
-1 4 -5 7 -11 7 -5 0 -7 -7 -4 -15z"/>
<path d="M2210 147 c0 -44 14 -77 31 -77 23 0 25 16 4 24 -8 3 -15 16 -15 30
0 14 -4 28 -10 31 -5 3 -10 0 -10 -8z"/>
<path d="M2575 150 c-3 -5 1 -10 9 -10 8 0 18 5 21 10 3 6 -1 10 -9 10 -8 0
-18 -4 -21 -10z"/>
<path d="M1571 128 c-1 -15 4 -30 9 -33 6 -3 10 2 10 11 0 16 2 16 20 -1 18
-17 20 -17 14 -2 -6 16 -11 18 -31 16 -4 0 -10 8 -14 18 -6 14 -8 13 -8 -9z"/>
<path d="M2456 134 c-16 -11 -17 -17 -8 -26 15 -15 36 2 30 25 -3 14 -5 14
-22 1z"/>
<path d="M2527 143 c-3 -5 1 -14 9 -20 14 -14 30 0 19 17 -7 12 -22 13 -28 3z"/>
<path d="M465 130 c3 -5 17 -10 31 -10 15 0 24 -6 24 -16 0 -8 4 -13 9 -10 5
4 32 -5 59 -19 27 -14 61 -25 73 -26 26 0 70 -17 54 -19 -19 -4 70 -22 125
-26 30 -2 51 -2 45 0 -5 2 -81 27 -169 56 -87 28 -171 57 -187 65 -32 17 -73
20 -64 5z"/>
<path d="M670 128 c0 -8 7 -21 15 -28 19 -16 19 -1 0 24 -12 16 -15 17 -15 4z"/>
<path d="M2303 133 c-7 -2 -13 -11 -13 -19 0 -9 4 -13 9 -10 5 3 14 -1 21 -9
14 -17 40 -20 40 -5 0 5 -3 9 -7 9 -23 -4 -31 3 -26 21 5 20 -1 23 -24 13z"/>
<path d="M1090 120 c0 -5 6 -10 14 -10 8 0 18 5 21 10 3 6 -3 10 -14 10 -12 0
-21 -4 -21 -10z"/>
<path d="M1219 121 c11 -7 11 -9 0 -14 -8 -3 -5 -6 8 -6 12 -1 25 4 29 11 4 6
3 8 -4 4 -6 -3 -13 -2 -17 4 -3 5 -12 10 -18 10 -8 0 -7 -3 2 -9z"/>
<path d="M1336 104 c-4 -11 -15 -15 -36 -12 -16 3 -31 -1 -34 -7 -2 -7 10 -11
38 -9 33 1 42 6 44 23 4 25 -3 28 -12 5z"/>
<path d="M2384 108 c-9 -15 2 -21 26 -13 12 4 19 10 15 13 -10 10 -35 11 -41
0z"/>
<path d="M1720 98 c0 -9 5 -20 11 -23 17 -11 20 0 4 21 -13 17 -14 17 -15 2z"/>
<path d="M2603 103 c-13 -2 -23 -9 -23 -14 0 -12 27 -12 35 1 4 6 11 8 16 5 5
-4 9 -1 9 4 0 6 -3 10 -7 10 -5 -1 -18 -4 -30 -6z"/>
<path d="M264 88 c8 -37 18 -48 32 -37 11 9 21 9 39 1 26 -12 31 -7 17 16 -7
10 -15 10 -36 2 -33 -12 -36 -12 -35 -2 3 17 -2 32 -10 32 -5 0 -8 -6 -7 -12z"/>
<path d="M1500 90 c0 -5 7 -10 15 -10 8 0 15 5 15 10 0 6 -7 10 -15 10 -8 0
-15 -4 -15 -10z"/>
<path d="M2010 88 c0 -3 6 -9 13 -12 9 -5 9 -7 0 -12 -7 -3 -9 -12 -6 -20 4
-10 0 -12 -11 -8 -9 3 -16 2 -16 -2 0 -16 14 -29 33 -32 15 -3 17 1 12 17 -3
12 -3 31 1 44 7 20 9 19 14 -13 l6 -35 5 42 c4 41 4 42 -23 40 -16 -1 -28 -5
-28 -9z"/>
<path d="M2850 85 c0 -9 -20 -20 -55 -30 -42 -13 -55 -21 -55 -36 0 -12 7 -19
20 -19 11 0 20 4 20 10 0 5 -7 6 -17 3 -11 -4 -14 -3 -9 6 4 6 17 11 29 10 41
-4 57 1 57 16 0 8 9 15 20 15 22 0 23 1 14 24 -8 20 -24 21 -24 1z"/>
<path d="M1210 71 c0 -6 -8 -11 -17 -12 -10 0 -13 -3 -6 -5 18 -8 49 11 34 20
-6 4 -11 2 -11 -3z"/>
<path d="M1460 70 c-8 -5 -12 -11 -9 -14 3 -3 14 1 25 9 21 16 8 20 -16 5z"/>
<path d="M2396 71 c-3 -5 5 -8 19 -7 14 0 25 4 25 9 0 10 -38 9 -44 -2z"/>
<path d="M475 60 c-3 -6 1 -13 10 -16 21 -9 26 -2 10 13 -9 8 -16 9 -20 3z"/>
<path d="M1653 46 c0 -18 3 -24 9 -18 7 7 7 16 0 28 -8 14 -9 13 -9 -10z"/>
<path d="M2333 63 c9 -2 25 -2 35 0 9 3 1 5 -18 5 -19 0 -27 -2 -17 -5z"/>
<path d="M2615 61 c-3 -6 0 -11 9 -11 8 0 17 -6 20 -12 3 -7 5 -4 3 6 -2 22
-22 32 -32 17z"/>
<path d="M1270 51 c0 -8 41 -23 47 -17 2 1 -8 8 -22 14 -14 6 -25 8 -25 3z"/>
<path d="M1217 44 c-4 -4 -7 -14 -7 -23 0 -11 3 -12 11 -4 6 6 10 16 7 23 -2
6 -7 8 -11 4z"/>
<path d="M1350 25 c0 -20 17 -28 23 -11 3 8 -1 17 -9 20 -8 3 -14 -1 -14 -9z"/>
<path d="M2555 31 c-29 -7 -29 -7 -6 -13 15 -4 29 -1 38 8 15 15 14 15 -32 5z"/>
<path d="M1155 20 c-8 -13 -1 -24 14 -19 6 3 7 10 2 18 -6 10 -10 10 -16 1z"/>
<path d="M2605 20 c-8 -13 -1 -24 14 -19 6 3 7 10 2 18 -6 10 -10 10 -16 1z"/>
</g>
</svg>
