<?xml version="1.0" standalone="no"?>
<!DOCTYPE svg PUBLIC "-//W3C//DTD SVG 20010904//EN"
 "http://www.w3.org/TR/2001/REC-SVG-20010904/DTD/svg10.dtd">
<svg version="1.0" xmlns="http://www.w3.org/2000/svg"
 width="428.000000pt" height="430.000000pt" viewBox="0 0 428.000000 430.000000"
 preserveAspectRatio="xMidYMid meet">

<g transform="translate(0.000000,430.000000) scale(0.100000,-0.100000)"
fill="#000000" stroke="none">
<path d="M2 4182 c-2 -65 1 -145 7 -179 13 -69 23 -467 14 -528 -5 -32 -8 -35
-14 -20 -4 11 -8 -503 -8 -1143 1 -639 4 -1162 8 -1162 4 0 11 4 16 9 6 5 27
14 48 21 20 6 43 17 50 23 29 28 124 103 147 116 14 8 59 34 100 58 41 23 85
43 98 43 13 0 50 13 83 30 50 25 63 28 84 18 36 -16 32 -38 -6 -38 -17 0 -52
-7 -78 -15 -25 -9 -65 -20 -89 -26 -32 -7 -48 -18 -60 -39 -9 -17 -42 -43 -72
-60 -47 -25 -51 -30 -29 -30 15 0 29 7 33 15 7 20 29 19 49 -3 20 -22 13 -32
-22 -32 -15 0 -49 -6 -76 -14 -67 -19 -247 -93 -262 -109 -7 -7 -15 -54 -19
-112 l-7 -100 52 -74 c36 -53 49 -81 45 -95 -4 -15 -3 -17 4 -7 18 25 23 -7 7
-47 -16 -39 -16 -39 -60 -32 -38 6 -45 4 -45 -10 0 -9 5 -21 12 -28 7 -7 8
-12 2 -12 -5 0 -5 -3 1 -8 16 -11 55 -92 44 -92 -5 0 -9 4 -9 8 0 4 -11 23
-25 42 l-25 34 0 -292 0 -292 2140 0 2140 0 0 994 c0 655 -3 997 -10 1001 -6
3 -7 17 -4 30 5 21 2 25 -29 30 -52 10 -69 3 -81 -31 -6 -17 -42 -62 -80 -99
-69 -67 -70 -67 -115 -62 -28 3 -50 12 -56 22 -31 54 -38 57 -76 41 -35 -15
-53 -41 -122 -178 -10 -20 -26 -39 -35 -42 -30 -9 -77 0 -76 15 2 28 16 48 30
42 12 -4 14 0 8 23 -12 48 -33 72 -77 87 -73 24 -57 80 31 112 22 7 36 18 34
26 -2 8 -6 37 -9 66 -8 69 18 96 106 111 79 14 94 25 79 57 -9 21 -17 24 -50
21 -50 -5 -82 21 -69 56 12 34 58 35 95 3 32 -27 42 -30 51 -15 4 6 12 10 18
9 19 -3 59 17 91 44 34 30 64 36 121 24 109 -23 120 -22 165 22 23 23 46 41
51 41 5 0 9 400 9 925 l0 925 -2137 0 -2138 0 -3 -118z m1115 59 c26 -22 39
-110 51 -349 8 -169 2 -186 -51 -131 -41 42 -69 90 -91 155 -9 27 -32 69 -51
93 -43 55 -51 82 -36 131 10 34 16 39 49 45 26 4 47 17 68 40 16 19 31 35 34
34 3 0 15 -8 27 -18z m1176 -138 c-7 -2 -21 -2 -30 0 -10 3 -4 5 12 5 17 0 24
-2 18 -5z m-123 -33 c0 -5 -15 -9 -32 -9 l-33 1 30 8 c17 4 31 8 33 9 1 0 2
-3 2 -9z m-125 -40 c3 -5 13 -6 22 -3 11 4 14 3 9 -6 -4 -6 -16 -9 -25 -6 -10
3 -29 -4 -44 -15 -14 -11 -30 -20 -36 -20 -6 0 -11 -6 -11 -14 0 -8 -7 -16
-15 -20 -8 -3 -15 -2 -15 3 0 5 7 14 15 21 8 7 15 19 15 27 0 8 4 11 10 8 5
-3 20 3 32 14 24 23 34 26 43 11z m-91 -104 c-3 -8 -17 -17 -32 -21 -32 -9
-103 -15 -84 -8 6 2 10 9 6 14 -3 5 -2 9 3 8 4 -1 10 0 13 1 3 1 22 3 42 4 20
1 40 5 44 9 11 11 14 8 8 -7z m-330 -25 c3 -5 -1 -11 -9 -14 -9 -4 -12 -1 -8
9 6 16 10 17 17 5z m292 -26 c-24 -18 -42 -19 -52 -4 -4 7 0 9 12 5 11 -3 26
-1 34 4 23 15 27 11 6 -5z m-267 -9 c-12 -10 -60 -16 -54 -6 3 5 18 10 32 10
15 0 24 -2 22 -4z m180 -35 c-27 -21 -64 -41 -75 -41 -14 0 71 59 85 60 8 0 4
-8 -10 -19z m-244 -1 c-3 -5 -10 -10 -16 -10 -5 0 -9 5 -9 10 0 6 7 10 16 10
8 0 12 -4 9 -10z m296 -30 c-12 -11 -28 -17 -33 -14 -6 4 0 13 13 20 36 20 47
16 20 -6z m-60 -37 c-8 -16 -46 -53 -54 -53 -1 0 -2 11 -2 24 0 13 5 22 10 20
6 -3 19 2 30 10 26 20 28 20 16 -1z m99 2 c0 -2 -10 -10 -22 -16 -21 -11 -22
-11 -9 4 13 16 31 23 31 12z m-64 -51 c-3 -9 -6 -17 -6 -20 0 -2 -7 -1 -15 2
-8 4 -15 1 -15 -5 0 -6 -13 -17 -30 -26 -43 -22 -36 -5 13 32 47 36 62 41 53
17z m-369 -20 c-3 -3 -12 -4 -19 -1 -8 3 -5 6 6 6 11 1 17 -2 13 -5z m763 -64
c0 -11 -4 -20 -9 -20 -5 0 -7 9 -4 20 3 11 7 20 9 20 2 0 4 -9 4 -20z m50 11
c0 -10 91 -51 114 -51 19 0 22 -20 4 -20 -7 0 -4 -6 7 -12 49 -26 68 -87 46
-143 -5 -11 -4 -28 1 -38 6 -12 5 -23 -3 -33 -8 -10 -8 -14 0 -14 6 0 10 -6 8
-12 -1 -7 4 -12 11 -11 6 2 12 -4 12 -12 0 -8 -6 -12 -14 -9 -8 3 -24 -4 -35
-15 -12 -12 -27 -21 -34 -21 -8 0 -22 -9 -31 -19 -10 -10 -26 -21 -37 -24 -27
-7 -79 38 -79 69 0 13 -4 24 -10 24 -5 0 -10 -17 -10 -38 0 -45 -28 -80 -48
-60 -16 16 -147 18 -237 5 -55 -8 -76 -16 -98 -38 -26 -27 -27 -30 -12 -52 15
-24 12 -57 -7 -57 -11 0 -58 -49 -58 -61 0 -4 -3 -14 -6 -23 -8 -22 39 -22 56
-1 7 9 19 14 27 11 7 -3 13 -2 13 3 0 5 9 11 20 14 15 4 20 0 20 -14 0 -12 -5
-16 -15 -13 -26 10 -19 -4 23 -51 11 -13 10 -15 -6 -15 -37 0 -32 -14 10 -27
92 -27 157 -11 233 58 41 38 55 58 55 78 0 56 53 86 82 47 15 -21 16 -40 5
-218 -12 -188 -13 -195 -39 -226 -18 -22 -25 -39 -21 -54 6 -22 5 -22 -23 4
-34 31 -81 51 -103 43 -11 -4 -5 -12 22 -31 26 -17 37 -32 37 -49 0 -14 9 -34
19 -44 19 -19 19 -19 -5 -25 -23 -6 -167 1 -192 10 -18 5 23 64 44 64 8 0 14
6 13 13 -3 18 20 69 28 64 5 -3 6 21 5 54 -3 47 -8 61 -24 70 -16 9 -18 17
-13 48 l6 38 -46 -2 c-38 -1 -50 -6 -70 -31 -13 -16 -24 -37 -25 -47 0 -25
-27 -77 -56 -107 -12 -14 -29 -47 -36 -73 -11 -41 -10 -57 5 -115 21 -80 67
-182 83 -182 21 0 31 24 33 80 2 30 5 58 7 62 7 12 218 2 240 -10 10 -6 14
-12 8 -12 -18 0 -23 -62 -8 -99 8 -18 11 -44 8 -57 -5 -19 -1 -26 20 -34 14
-5 26 -11 26 -14 0 -18 -16 -39 -36 -46 -16 -6 -21 -15 -17 -29 3 -13 -5 -29
-25 -49 -16 -16 -32 -35 -35 -43 -4 -10 -8 -8 -12 9 -4 12 -14 22 -21 22 -14
0 -18 -11 -15 -42 1 -10 -3 -18 -8 -18 -6 0 -11 -8 -11 -17 0 -11 -3 -14 -8
-7 -4 5 -17 10 -29 10 -18 0 -22 -4 -17 -21 6 -17 5 -18 -8 -8 -14 12 -28 8
-28 -9 0 -4 19 -22 42 -39 44 -31 108 -83 162 -131 26 -23 28 -29 16 -37 -12
-9 -12 -11 3 -17 17 -6 17 -7 0 -20 -15 -11 -15 -14 -3 -15 8 -1 18 -1 21 -1
4 1 9 -8 12 -18 5 -21 -9 -28 -15 -8 -9 25 -28 -5 -28 -44 0 -30 -3 -39 -14
-35 -10 4 -12 0 -9 -14 4 -14 0 -19 -17 -19 -17 0 -20 -4 -15 -20 5 -15 0 -22
-19 -30 -17 -6 -26 -17 -27 -32 -1 -21 -2 -20 -11 5 -9 26 -11 27 -23 10 -13
-17 -15 -17 -50 0 -85 40 -157 120 -194 214 -18 45 -38 190 -67 478 -3 33 -16
80 -27 105 -11 25 -30 81 -42 125 -18 69 -24 80 -43 81 -42 2 -62 32 -62 91 0
30 -5 63 -10 73 -16 30 -22 140 -7 140 8 0 13 -19 14 -53 1 -42 7 -56 28 -74
14 -13 30 -23 36 -23 11 0 12 17 1 22 -13 5 -24 58 -12 58 5 0 10 21 10 48 1
26 7 58 15 72 9 16 15 55 15 105 1 44 5 114 11 155 6 41 10 82 9 90 -6 78 -9
201 -5 225 6 34 72 85 111 85 11 0 56 16 98 36 43 19 105 40 139 46 69 12 71
12 111 2 18 -4 31 -2 36 5 4 7 20 13 36 15 38 3 74 23 74 41 0 8 5 15 10 15 6
0 10 -4 10 -9z m-580 -11 c0 -5 -4 -10 -10 -10 -5 0 -10 5 -10 10 0 6 5 10 10
10 6 0 10 -4 10 -10z m-180 -50 c11 -7 6 -10 -20 -10 -26 0 -31 3 -20 10 8 5
17 10 20 10 3 0 12 -5 20 -10z m110 -10 c0 -11 -4 -20 -8 -20 -4 0 -8 9 -8 20
0 11 4 20 8 20 4 0 8 -9 8 -20z m-233 -22 c-3 -7 -5 -2 -5 12 0 14 2 19 5 13
2 -7 2 -19 0 -25z m1129 -28 c17 0 24 -6 24 -18 0 -14 -8 -19 -32 -19 -18 0
-27 2 -20 5 20 6 13 25 -8 19 -13 -3 -20 0 -20 10 0 10 6 13 16 9 9 -3 27 -6
40 -6z m-1732 -115 c18 -18 39 -88 34 -113 -2 -11 8 -23 27 -32 24 -12 30 -21
30 -49 0 -22 -6 -37 -17 -42 -10 -5 -26 -13 -35 -18 -13 -6 -17 -18 -15 -45 3
-26 0 -36 -11 -36 -9 0 -14 11 -15 31 0 17 -7 38 -14 48 -36 43 -60 114 -61
179 -2 61 0 67 23 79 32 16 35 16 54 -2z m-784 -136 c0 -37 -4 -58 -10 -54
-13 8 -13 115 0 115 6 0 10 -27 10 -61z m1577 39 c-3 -8 -6 -5 -6 6 -1 11 2
17 5 13 3 -3 4 -12 1 -19z m1223 -178 c0 -33 -11 -38 -30 -15 -10 12 -9 15 5
15 11 0 15 5 11 15 -3 8 -1 15 4 15 6 0 10 -13 10 -30z m-440 -381 c0 -18 -4
-28 -10 -24 -5 3 -10 20 -10 36 0 18 4 28 10 24 6 -3 10 -20 10 -36z m417 -11
c-3 -7 -5 -2 -5 12 0 14 2 19 5 13 2 -7 2 -19 0 -25z m-2344 -29 c2 -8 7 -27
14 -44 6 -16 18 -53 26 -82 23 -74 62 -133 90 -133 12 0 28 4 36 9 10 6 22 1
40 -15 14 -13 29 -24 33 -24 5 0 8 -7 8 -15 0 -24 63 -19 86 6 17 19 19 19 31
3 7 -10 13 -14 13 -9 0 18 34 -39 35 -59 1 -12 7 -51 14 -89 14 -82 7 -229
-13 -259 -8 -13 -18 -40 -22 -61 -8 -46 -48 -72 -68 -46 -17 23 -64 18 -70 -7
-4 -14 -17 -24 -37 -28 -35 -7 -86 13 -81 32 1 7 -9 17 -22 22 -13 5 -27 14
-31 19 -9 16 -25 14 -25 -3 0 -7 -7 -19 -15 -26 -8 -7 -12 -17 -8 -24 4 -7 1
-6 -8 1 -9 7 -22 32 -29 55 -7 24 -22 68 -33 98 -18 50 -20 78 -19 283 0 200
14 395 29 420 6 11 24 -5 26 -24z m2362 1 c4 -6 8 -21 11 -34 6 -34 -32 -43
-57 -13 -18 21 -18 22 2 40 24 19 35 21 44 7z m-2151 -69 c25 -28 17 -64 -14
-66 -14 -1 -28 3 -32 9 -12 18 -9 64 5 69 20 9 23 8 41 -12z m2223 -31 c0 -16
-4 -30 -9 -30 -9 0 -11 22 -2 44 9 23 11 20 11 -14z m43 -128 c0 -21 -2 -24
-10 -12 -13 20 -13 53 0 45 6 -3 10 -18 10 -33z m-1532 16 c15 -19 23 -98 14
-137 -10 -44 -36 -62 -57 -40 -21 21 -26 149 -6 172 16 20 35 22 49 5z m1379
-455 c-3 -10 -5 -2 -5 17 0 19 2 27 5 18 2 -10 2 -26 0 -35z m0 -60 c-3 -10
-5 -4 -5 12 0 17 2 24 5 18 2 -7 2 -21 0 -30z m687 -69 c22 -8 20 -41 -4 -61
-16 -14 -18 -26 -14 -66 4 -46 4 -48 -13 -32 -11 11 -18 39 -21 78 -4 50 -2
63 14 74 21 15 18 15 38 7z m-460 -89 c5 -18 13 -25 30 -25 35 0 60 -33 51
-67 -4 -15 -8 -47 -8 -70 0 -30 -4 -43 -14 -43 -20 0 -63 30 -63 45 0 6 -18
37 -40 68 -45 62 -47 72 -23 99 24 27 59 23 67 -7z m-2166 -13 c28 -35 5 -101
-35 -102 -23 0 -53 39 -53 69 0 50 56 72 88 33z m886 -16 c-3 -9 -10 -13 -15
-10 -5 3 -3 11 4 19 15 16 19 13 11 -9z m-169 -46 c-3 -5 -14 -10 -24 -10 -10
0 -26 -11 -34 -24 -16 -23 -13 -36 6 -36 6 0 7 3 4 7 -7 6 11 33 22 33 3 0 6
-68 6 -150 0 -89 4 -154 10 -158 6 -4 11 -16 12 -27 4 -37 45 -190 60 -224 8
-18 16 -67 17 -107 1 -53 5 -74 14 -74 9 0 12 -12 10 -37 -3 -42 -28 -59 -28
-20 0 14 -5 27 -10 29 -6 2 -11 21 -12 43 0 22 -7 52 -14 67 -8 15 -14 45 -14
68 0 22 -4 48 -9 58 -9 17 -27 112 -54 287 -8 50 -12 111 -10 138 6 57 -12 64
-21 7 -8 -54 -25 -51 -19 3 2 23 5 52 5 65 1 24 50 72 74 72 9 0 12 -4 9 -10z
m48 3 c-7 -2 -19 -2 -25 0 -7 3 -2 5 12 5 14 0 19 -2 13 -5z m-205 -42 l21
-29 -37 -15 c-20 -8 -45 -18 -54 -21 -10 -3 -18 -10 -18 -15 0 -6 6 -8 13 -6
9 4 13 -24 15 -118 3 -118 2 -125 -27 -190 -17 -37 -32 -67 -35 -67 -6 0 4 31
15 45 22 30 40 129 33 178 -4 29 -8 57 -8 62 -1 6 -14 11 -30 13 -23 3 -26 6
-15 14 10 7 6 8 -15 5 -44 -7 -59 1 -39 21 9 10 21 17 27 17 6 0 11 22 12 49
2 60 27 86 83 86 29 0 42 -6 59 -29z m1787 -47 c6 -9 10 -27 7 -40 -6 -34 -58
-34 -74 0 -6 14 -8 32 -5 40 8 21 56 21 72 0z m-2120 -41 c-25 -6 -42 -21 -24
-20 37 1 50 -3 42 -15 -4 -7 -13 -42 -18 -78 l-10 -65 -19 68 c-20 70 -28 79
-45 50 -8 -13 -10 -14 -11 -4 0 26 52 71 79 70 21 -1 22 -2 6 -6z m2205 -23
c3 -4 12 -10 20 -13 8 -4 -1 -5 -20 -4 -19 1 -33 6 -32 11 2 5 -2 13 -10 18
-8 6 -5 7 12 2 14 -4 27 -10 30 -14z m-1627 -145 c-3 -9 -8 -14 -10 -11 -3 3
-2 9 2 15 9 16 15 13 8 -4z m1989 -11 c9 -3 19 -11 22 -19 8 -23 -69 -13 -119
14 l-40 21 60 -6 c33 -3 67 -8 77 -10z m-2407 -36 c-4 -18 -11 -39 -15 -48 -4
-8 -15 -41 -24 -72 -9 -32 -22 -60 -28 -64 -8 -5 -9 -1 -5 11 4 9 15 50 23 89
9 39 20 73 24 76 3 3 9 13 13 23 11 29 19 19 12 -15z m1701 -134 c2 -16 6 -33
8 -39 2 -5 0 -19 -5 -30 -5 -15 -8 -8 -9 25 -1 44 -1 45 -15 20 -14 -25 -14
-25 -15 16 0 64 25 70 36 8z m-341 -5 c17 -7 53 -34 81 -61 42 -38 49 -49 38
-58 -7 -7 -19 -8 -25 -4 -8 4 -9 3 -5 -4 9 -15 43 -16 51 -2 3 6 14 10 23 10
9 0 -19 -23 -61 -51 -42 -27 -82 -47 -87 -44 -6 3 -10 2 -10 -4 0 -6 -12 -14
-26 -17 -17 -4 -22 -10 -15 -17 6 -6 15 -4 26 7 22 22 28 20 13 -4 -7 -11 -18
-20 -24 -20 -7 0 -14 -7 -18 -15 -9 -26 -23 -16 -18 13 4 26 4 27 -13 7 -9
-11 -14 -15 -11 -8 4 6 2 14 -4 18 -5 3 -10 1 -10 -5 0 -7 -7 -10 -15 -6 -8 3
-15 1 -15 -5 0 -6 -7 -9 -15 -6 -8 4 -22 -4 -33 -17 l-18 -24 -22 23 c-13 14
-18 26 -13 30 6 3 8 12 5 19 -3 8 -1 17 5 21 16 9 13 25 -4 25 -8 0 -15 -4
-15 -10 0 -15 -36 -12 -49 3 -6 8 -8 17 -4 20 8 9 -15 9 -44 1 -13 -4 -20 -11
-16 -17 3 -6 1 -7 -6 -3 -6 4 -9 12 -5 17 3 6 -3 13 -15 16 -22 6 -29 33 -8
33 7 0 5 5 -5 11 -16 9 -16 11 0 29 18 22 58 27 65 8 2 -7 8 -10 12 -6 5 5 0
17 -10 29 -25 27 -11 49 46 72 35 13 65 16 144 13 55 -2 114 -9 130 -17z
m-395 -50 c0 -5 -7 -9 -15 -9 -8 0 -15 -7 -15 -15 0 -8 -5 -15 -11 -15 -6 0
-8 7 -5 16 3 9 6 22 6 29 0 8 7 11 20 8 11 -3 20 -9 20 -14z m-1037 -42 c-3
-12 -9 -26 -13 -32 -4 -5 -10 -30 -14 -55 -9 -62 -68 -301 -73 -296 -10 10 87
417 98 411 4 -3 5 -15 2 -28z m660 -55 c1 -18 5 -32 8 -32 5 0 39 -71 39 -83
0 -3 10 -23 22 -43 12 -21 23 -44 23 -53 1 -9 5 -31 9 -50 6 -25 11 -30 18
-20 7 12 9 11 7 -1 -3 -33 2 -45 11 -25 7 17 9 14 9 -13 1 -18 6 -42 12 -53 5
-11 9 -37 7 -57 l-4 -37 -8 43 c-5 23 -12 42 -17 42 -5 0 -9 9 -9 20 0 11 -4
20 -9 20 -5 0 -11 10 -14 23 -7 28 -34 103 -51 142 -8 17 -17 41 -21 55 -4 14
-16 41 -25 60 -23 45 -38 120 -21 104 6 -6 13 -25 14 -42z m-366 -94 c-3 -7
-5 -2 -5 12 0 14 2 19 5 13 2 -7 2 -19 0 -25z m853 8 c0 -11 -19 -15 -25 -6
-3 5 1 10 9 10 9 0 16 -2 16 -4z m-810 -77 c0 -5 -4 -9 -10 -9 -5 0 -10 7 -10
16 0 8 5 12 10 9 6 -3 10 -10 10 -16z m645 -9 c11 -22 13 -35 5 -49 -31 -59
-114 -10 -90 53 14 39 64 36 85 -4z m375 10 c0 -5 -4 -10 -9 -10 -6 0 -13 5
-16 10 -3 6 1 10 9 10 9 0 16 -4 16 -10z m-20 -15 c0 -3 -9 -15 -20 -27 -22
-24 -26 -18 -10 13 10 17 30 27 30 14z m-854 -82 c-10 -10 -19 5 -10 18 6 11
8 11 12 0 2 -7 1 -15 -2 -18z m-591 -148 c-3 -31 -9 -54 -12 -51 -3 3 -2 30 2
61 3 31 9 54 12 51 3 -3 2 -30 -2 -61z m-924 -42 c-12 -20 -14 -14 -5 12 4 9
9 14 11 11 3 -2 0 -13 -6 -23z m1932 -136 c21 -38 37 -77 37 -87 0 -10 3 -20
8 -22 12 -5 52 -94 52 -116 0 -12 6 -25 13 -29 11 -7 57 -101 57 -117 0 -3 -4
-6 -10 -6 -5 0 -15 19 -22 42 -7 24 -28 70 -48 103 -20 33 -42 78 -49 100 -15
42 -37 92 -73 160 -11 22 -22 58 -24 80 l-4 40 13 -40 c8 -22 30 -71 50 -108z
m-1993 93 c0 -5 -9 -10 -20 -10 -11 0 -20 5 -20 10 0 6 9 10 20 10 11 0 20 -4
20 -10z m960 -40 c0 -11 -4 -20 -9 -20 -5 0 -7 9 -4 20 3 11 7 20 9 20 2 0 4
-9 4 -20z m732 -50 c-6 -41 -12 -38 -12 6 0 19 4 33 8 30 5 -3 7 -19 4 -36z
m370 24 c3 -3 -1 -19 -10 -37 -17 -33 -28 -22 -18 18 6 24 17 31 28 19z
m-2042 -109 c0 -5 -5 -3 -10 5 -5 8 -10 20 -10 25 0 6 5 3 10 -5 5 -8 10 -19
10 -25z m2160 -324 c0 -5 3 -18 6 -28 6 -16 5 -16 -9 2 -19 23 -21 35 -7 35 6
0 10 -4 10 -9z"/>
<path d="M2641 1118 c-1 -14 -7 -29 -13 -31 -7 -3 -8 -6 -3 -6 24 -2 36 16 26
40 l-10 24 0 -27z"/>
<path d="M2331 1104 c0 -11 3 -14 6 -6 3 7 2 16 -1 19 -3 4 -6 -2 -5 -13z"/>
<path d="M2095 940 c-8 -13 3 -30 20 -30 8 0 11 7 8 20 -6 22 -18 26 -28 10z"/>
<path d="M211 1243 c-12 -13 -11 -14 10 -8 44 13 57 24 29 24 -14 0 -31 -7
-39 -16z"/>
</g>
</svg>
